<?xml version="1.0" encoding="utf-8"?>
<!-- Generator: Adobe Illustrator 22.0.0, SVG Export Plug-In . SVG Version: 6.00 Build 0)  -->
<svg version="1.1" id="Layer_1" xmlns="http://www.w3.org/2000/svg" xmlns:xlink="http://www.w3.org/1999/xlink" x="0px" y="0px"
	 viewBox="0 0 211.9 97.9" style="enable-background:new 0 0 211.9 97.9;" xml:space="preserve">
<style type="text/css">
	.st0{fill:none;}
	.st1{fill:#C7DE80;}
	.st2{fill:#E9DCB7;}
	.st3{fill:#A7CFE3;}
	.Drop_x0020_Shadow{fill:none;}
	.Round_x0020_Corners_x0020_2_x0020_pt{fill:#FFFFFF;stroke:#000000;stroke-miterlimit:10;}
	.Live_x0020_Reflect_x0020_X{fill:none;}
	.Bevel_x0020_Soft{fill:url(#SVGID_1_);}
	.Dusk{fill:#FFFFFF;}
	.Foliage_GS{fill:#FFDD00;}
	.Pompadour_GS{fill-rule:evenodd;clip-rule:evenodd;fill:#44ADE2;}
	.st4{fill:url(#SVGID_2_);}
	.st5{fill:#DE9175;}
	.st6{fill:#E6977B;}
	.st7{fill:#F8A688;}
	.st8{fill:#6D4D3A;}
	.st9{fill:#2E4459;}
	.st10{fill:url(#SVGID_3_);}
	.st11{fill:#E49678;}
	.st12{fill:#31231A;}
	.st13{fill:#ED2079;}
</style>
<pattern  x="-26.6" y="-43.2" width="144.1" height="138.4" patternUnits="userSpaceOnUse" id="Alyssa" viewBox="100 -216.8 144.1 138.4" style="overflow:visible;">
	<g>
		<rect x="100" y="-216.8" class="st0" width="144.1" height="138.4"/>
		<g>
			<path class="st1" d="M311-58.3c-11.8-1.4-19.4,0.3-22.7,3.1c-3,2.5-5,5.4-2.2,11.9c2.9,7.1,1.5,14.7-5.5,15.9
				c-6.2,1-10.9-4.8-11.2-12.3c-0.2-5.2-1.9-8.3-5.5-7.6c-3.6,0.7-4.6,5.9-3.6,11.8c1.4,8.1,5.5,11.8,6.2,20.2
				c0.5,6.1-2.9,13.7-12.5,15c-9.3,1.4-15.9-4.3-16.6-10.5c-0.7-6.6,3.6-10.9,3.1-17.6c-0.5-6.7-4-10.2-5.9-17.3
				c-2.8-10.5,1.2-19,7.8-22.7c14.7-8.1,22.8,3.6,36,1.6c10.9-1.7,23.3-18.2,33-19.5c8.2-1.2,13.8,4.7,15,14
				C327.6-63,321.7-57.1,311-58.3z M268.8-57.8c0-2.3-1.9-4.2-4.2-4.2c-2.3,0-4.2,1.9-4.2,4.2s1.9,4.2,4.2,4.2
				C267-53.6,268.8-55.5,268.8-57.8z M318.3-73.2c0-1-0.8-1.7-1.7-1.7c-1,0-1.7,0.8-1.7,1.7s0.8,1.7,1.7,1.7
				C317.5-71.4,318.3-72.2,318.3-73.2z"/>
		</g>
		<g>
			<path class="st2" d="M148.8-77.5c0,7.2,4.6,13.8-1,16.3c-8.5,3.8-28-14.3-28-36.2c0-12,8.7-19,17.8-19c12.3,0,18,8.2,18,17.5
				C155.6-89.5,148.8-85.7,148.8-77.5z M143.4-82.9c0-1.1-0.9-2.1-2.1-2.1c-1.1,0-2.1,0.9-2.1,2.1c0,1.1,0.9,2.1,2.1,2.1
				C142.5-80.8,143.4-81.7,143.4-82.9z"/>
			<path class="st3" d="M223.5-54c-7.9,2.7-19.4-15.3-17.7-27c1.2-8.2,7.1-13.2,13.1-14.2c7.5-1.3,12.9,2.6,13.3,7.2
				c0.5,6.3-3.6,7.5-4.2,15C227.4-65.9,231.7-56.8,223.5-54z M219.7-81.5c0-1.4-1.2-2.6-2.6-2.6c-1.4,0-2.6,1.2-2.6,2.6
				c0,1.4,1.2,2.6,2.6,2.6C218.5-78.9,219.7-80.1,219.7-81.5z"/>
			<path class="st2" d="M119.4-76.5c0,1.4-1.2,2.6-2.6,2.6c-1.4,0-2.6-1.2-2.6-2.6s1.2-2.6,2.6-2.6
				C118.2-79.1,119.4-77.9,119.4-76.5z"/>
			<path class="st3" d="M184.6-84.2c0.7,8.1,12.7,7,17.9,14.2c10.5,14.5-1.2,46.4-21.6,46.4c-11.7,0-24.2-9.7-24.2-29.2
				c0-15.8,10.2-21.5,8.2-42.2c-1-10.8-12.5-20.3-12.5-34.8c0-5.9,3.6-13.4,11.6-13.4c7.1,0,10.8,6,10.8,12.9c0,6.8-5.4,15.7,1.4,19
				c5.2,2.6,13.2-4.8,19.5-6.8c5.2-1.6,12.4,0.2,14.8,8.5c2.5,8.9-3.3,14.7-11.6,16.7C192.5-91.3,184-90.6,184.6-84.2z M168.6-114.7
				c0-1.8-1.5-3.3-3.3-3.3c-1.8,0-3.3,1.5-3.3,3.3c0,1.8,1.5,3.3,3.3,3.3C167.1-111.5,168.6-112.9,168.6-114.7z M194.6-105.1
				c1.3,0,2.3-1,2.3-2.3c0-1.3-1-2.3-2.3-2.3c-1.3,0-2.3,1-2.3,2.3C192.2-106.1,193.3-105.1,194.6-105.1z M174.6-45.4
				c0-1.8-1.5-3.3-3.3-3.3c-1.8,0-3.3,1.5-3.3,3.3c0,1.8,1.5,3.3,3.3,3.3C173.1-42.1,174.6-43.6,174.6-45.4z"/>
			<path class="st1" d="M166.9-58.3c-11.8-1.4-19.4,0.3-22.7,3.1c-3,2.5-5,5.4-2.2,11.9c2.9,7.1,1.5,14.7-5.5,15.9
				c-6.2,1-10.9-4.8-11.2-12.3c-0.2-5.2-1.9-8.3-5.5-7.6c-3.6,0.7-4.6,5.9-3.6,11.8c1.4,8.1,5.5,11.8,6.2,20.2
				c0.5,6.1-2.9,13.7-12.5,15c-9.3,1.4-15.9-4.3-16.6-10.5c-0.7-6.6,3.6-10.9,3.1-17.6c-0.5-6.7-4-10.2-5.9-17.3
				c-2.8-10.5,1.2-19,7.8-22.7c14.7-8.1,22.8,3.6,36,1.6c10.9-1.7,23.3-18.2,33-19.5c8.2-1.2,13.8,4.7,15,14
				C183.5-63,177.6-57.1,166.9-58.3z M124.7-57.8c0-2.3-1.9-4.2-4.2-4.2c-2.3,0-4.2,1.9-4.2,4.2s1.9,4.2,4.2,4.2
				C122.9-53.6,124.7-55.5,124.7-57.8z M174.2-73.2c0-1-0.8-1.7-1.7-1.7c-1,0-1.7,0.8-1.7,1.7s0.8,1.7,1.7,1.7
				C173.4-71.4,174.2-72.2,174.2-73.2z"/>
		</g>
		<g>
			<path class="st3" d="M290.3-104.8c0,6.2-4.2,10.7-8.6,11.6c-4.5,0.9-8.3-1.3-13,1.2c-4.8,2.6-7.1,11.1-16.8,11.1
				c-8,0-15.2-8-15.2-18.8c0-20.2,13.1-29.2,25.6-29.2C278.9-129.1,290.3-116.4,290.3-104.8z M270.6-119.2c0-2.1-1.7-3.8-3.8-3.8
				c-2.1,0-3.8,1.7-3.8,3.8c0,2.1,1.7,3.8,3.8,3.8C268.9-115.4,270.6-117.1,270.6-119.2z"/>
			<path class="st1" d="M311-196.7c-11.8-1.4-19.4,0.3-22.7,3.1c-3,2.5-5,5.4-2.2,11.9c2.9,7.1,1.5,14.7-5.5,15.9
				c-6.2,1-10.9-4.8-11.2-12.3c-0.2-5.2-1.9-8.3-5.5-7.6c-3.6,0.7-4.6,5.9-3.6,11.8c1.4,8.1,5.5,11.8,6.2,20.2
				c0.5,6.1-2.9,13.7-12.5,15c-9.3,1.4-15.9-4.3-16.6-10.5c-0.7-6.6,3.6-10.9,3.1-17.6c-0.5-6.7-4-10.2-5.9-17.3
				c-2.8-10.5,1.2-19,7.8-22.7c14.7-8.1,22.8,3.6,36,1.6c10.9-1.7,23.3-18.2,33-19.5c8.2-1.2,13.8,4.7,15,14
				C327.6-201.3,321.7-195.4,311-196.7z M268.8-196.2c0-2.3-1.9-4.2-4.2-4.2c-2.3,0-4.2,1.9-4.2,4.2c0,2.3,1.9,4.2,4.2,4.2
				C267-192,268.8-193.9,268.8-196.2z M318.3-211.5c0-1-0.8-1.7-1.7-1.7c-1,0-1.7,0.8-1.7,1.7c0,1,0.8,1.7,1.7,1.7
				C317.5-209.8,318.3-210.6,318.3-211.5z"/>
		</g>
		<g>
			<path class="st3" d="M131.8-133.2c-14,2-21.2-13.3-17.7-20.3c3.7-7.3,12.1-4.2,19.5-4.2c9.7,0,16.4-7.6,20.4-2.2
				C158.3-154.4,149-135.6,131.8-133.2z M132.3-150.7c0-1.2-1-2.2-2.2-2.2c-1.2,0-2.2,1-2.2,2.2c0,1.2,1,2.2,2.2,2.2
				C131.3-148.4,132.3-149.4,132.3-150.7z"/>
			<path class="st2" d="M148.8-215.9c0,7.2,4.6,13.8-1,16.3c-8.5,3.8-28-14.3-28-36.2c0-12,8.7-19,17.8-19c12.3,0,18,8.2,18,17.5
				C155.6-227.9,148.8-224.1,148.8-215.9z M143.4-221.2c0-1.1-0.9-2.1-2.1-2.1c-1.1,0-2.1,0.9-2.1,2.1c0,1.1,0.9,2.1,2.1,2.1
				C142.5-219.2,143.4-220.1,143.4-221.2z"/>
			<path class="st3" d="M146.2-104.8c0,6.2-4.2,10.7-8.6,11.6c-4.5,0.9-8.3-1.3-13,1.2c-4.8,2.6-7.1,11.1-16.8,11.1
				c-8,0-15.2-8-15.2-18.8c0-20.2,13.1-29.2,25.6-29.2C134.7-129.1,146.2-116.4,146.2-104.8z M126.4-119.2c0-2.1-1.7-3.8-3.8-3.8
				c-2.1,0-3.8,1.7-3.8,3.8c0,2.1,1.7,3.8,3.8,3.8C124.7-115.4,126.4-117.1,126.4-119.2z"/>
			<path class="st1" d="M145.5-128.5c0,1.3-1.1,2.4-2.4,2.4c-1.3,0-2.4-1.1-2.4-2.4c0-1.3,1.1-2.4,2.4-2.4
				C144.4-131,145.5-129.9,145.5-128.5z"/>
			<path class="st3" d="M229.2-147c-3.2,4.7,1,10.7-1.4,15.2c-2.4,4.5-6.7,5-9.9,2.6c-3.6-2.8-3.4-6.6-8.3-8.8
				c-5.5-2.5-18,2.2-19.7-7.3c-0.9-4.8,2.4-8.6,7.3-9.7c6.1-1.4,9.4-0.2,15.4-3.1c6.1-2.9,11.2-9,22.1-12.1
				c10.4-3,16.1,1.6,16.6,5.9C252.3-155.9,234.2-154.4,229.2-147z M226.9-154.5c0-1.2-1-2.2-2.2-2.2c-1.2,0-2.2,1-2.2,2.2
				c0,1.2,1,2.2,2.2,2.2C225.9-152.2,226.9-153.2,226.9-154.5z"/>
			<path class="st2" d="M256.1-107.9c0,17.2-14.5,25.5-27,22.8c-10.3-2.2-12.8-17.3-16.7-26.2c-3.7-8.6-8.8-22.5-20.2-22.5
				c-11.2,0-12.8,14.5-23.7,14.5c-11,0-24.5-15.7-24.5-39.7c0-14.7,9.8-31.5,20.8-30.7c11.7,0.8,4.5,19.7,15.3,19.7
				c9.5,0,7.9-16.3,9.2-23.3c1.7-9,6.8-14.2,18.5-13.2c14.4,1.2,22.3,13.5,18.9,23.3c-4,11.5-23.9,17.3-21.5,30.5
				c1.3,7.6,13,12,26,16.2C245.8-131.7,256.1-125,256.1-107.9z M211.2-183.7c0,1.8,1.5,3.3,3.3,3.3c1.8,0,3.3-1.5,3.3-3.3
				s-1.5-3.3-3.3-3.3C212.6-187,211.2-185.5,211.2-183.7z M164.5-158.8c0-1-0.8-1.7-1.7-1.7c-1,0-1.7,0.8-1.7,1.7
				c0,1,0.8,1.7,1.7,1.7C163.7-157.1,164.5-157.8,164.5-158.8z M182-148.1c0-2.1-1.7-3.8-3.8-3.8c-2.1,0-3.8,1.7-3.8,3.8
				c0,2.1,1.7,3.8,3.8,3.8C180.2-144.3,182-146,182-148.1z M201.8-163.6c0-0.9-0.7-1.6-1.6-1.6c-0.9,0-1.6,0.7-1.6,1.6
				c0,0.9,0.7,1.6,1.6,1.6C201.1-162.1,201.8-162.8,201.8-163.6z M231.5-108.9c0-1.8-1.4-3.2-3.2-3.2c-1.8,0-3.2,1.4-3.2,3.2
				c0,1.8,1.4,3.2,3.2,3.2C230.1-105.8,231.5-107.2,231.5-108.9z"/>
			<path class="st3" d="M223.5-192.4c-7.9,2.7-19.4-15.3-17.7-27c1.2-8.2,7.1-13.2,13.1-14.2c7.5-1.3,12.9,2.6,13.3,7.2
				c0.5,6.3-3.6,7.5-4.2,15C227.4-204.3,231.7-195.2,223.5-192.4z M219.7-219.9c0-1.4-1.2-2.6-2.6-2.6c-1.4,0-2.6,1.2-2.6,2.6
				c0,1.4,1.2,2.6,2.6,2.6C218.5-217.3,219.7-218.4,219.7-219.9z"/>
			<path class="st2" d="M119.4-214.8c0,1.4-1.2,2.6-2.6,2.6c-1.4,0-2.6-1.2-2.6-2.6c0-1.4,1.2-2.6,2.6-2.6
				C118.2-217.4,119.4-216.3,119.4-214.8z"/>
			<path class="st2" d="M253.3-128.1c0-8.4-5.1-15.2-11.3-15.2s-11.3,6.8-11.3,15.2c0,8.4,5.1,12.4,11.3,12.4
				S253.3-119.7,253.3-128.1z"/>
			<path class="st3" d="M184.6-222.6c0.7,8.1,12.7,7,17.9,14.2c10.5,14.5-1.2,46.4-21.6,46.4c-11.7,0-24.2-9.7-24.2-29.2
				c0-15.8,10.2-21.5,8.2-42.2c-1-10.8-12.5-20.3-12.5-34.8c0-5.9,3.6-13.4,11.6-13.4c7.1,0,10.8,6,10.8,12.9c0,6.8-5.4,15.7,1.4,19
				c5.2,2.6,13.2-4.8,19.5-6.8c5.2-1.6,12.4,0.2,14.8,8.5c2.5,8.9-3.3,14.7-11.6,16.7C192.5-229.7,184-229,184.6-222.6z
				 M168.6-253.1c0-1.8-1.5-3.3-3.3-3.3c-1.8,0-3.3,1.5-3.3,3.3c0,1.8,1.5,3.3,3.3,3.3C167.1-249.8,168.6-251.3,168.6-253.1z
				 M194.6-243.4c1.3,0,2.3-1,2.3-2.3c0-1.3-1-2.3-2.3-2.3c-1.3,0-2.3,1-2.3,2.3C192.2-244.5,193.3-243.4,194.6-243.4z M174.6-183.7
				c0-1.8-1.5-3.3-3.3-3.3c-1.8,0-3.3,1.5-3.3,3.3c0,1.8,1.5,3.3,3.3,3.3C173.1-180.5,174.6-181.9,174.6-183.7z"/>
			<path class="st1" d="M166.9-196.7c-11.8-1.4-19.4,0.3-22.7,3.1c-3,2.5-5,5.4-2.2,11.9c2.9,7.1,1.5,14.7-5.5,15.9
				c-6.2,1-10.9-4.8-11.2-12.3c-0.2-5.2-1.9-8.3-5.5-7.6c-3.6,0.7-4.6,5.9-3.6,11.8c1.4,8.1,5.5,11.8,6.2,20.2
				c0.5,6.1-2.9,13.7-12.5,15c-9.3,1.4-15.9-4.3-16.6-10.5c-0.7-6.6,3.6-10.9,3.1-17.6c-0.5-6.7-4-10.2-5.9-17.3
				c-2.8-10.5,1.2-19,7.8-22.7c14.7-8.1,22.8,3.6,36,1.6c10.9-1.7,23.3-18.2,33-19.5c8.2-1.2,13.8,4.7,15,14
				C183.5-201.3,177.6-195.4,166.9-196.7z M124.7-196.2c0-2.3-1.9-4.2-4.2-4.2c-2.3,0-4.2,1.9-4.2,4.2c0,2.3,1.9,4.2,4.2,4.2
				C122.9-192,124.7-193.9,124.7-196.2z M174.2-211.5c0-1-0.8-1.7-1.7-1.7c-1,0-1.7,0.8-1.7,1.7c0,1,0.8,1.7,1.7,1.7
				C173.4-209.8,174.2-210.6,174.2-211.5z"/>
			<path class="st1" d="M230.2-174.4c0,0.8-0.6,1.4-1.4,1.4c-0.8,0-1.4-0.6-1.4-1.4c0-0.8,0.6-1.4,1.4-1.4
				C229.6-175.7,230.2-175.1,230.2-174.4z"/>
			<path class="st2" d="M235.7-212.8c0,1.2-1,2.2-2.2,2.2s-2.2-1-2.2-2.2c0-1.2,1-2.2,2.2-2.2S235.7-214,235.7-212.8z"/>
			<path class="st3" d="M152.2-189.6c0,0.7-0.5,1.2-1.2,1.2s-1.2-0.5-1.2-1.2s0.5-1.2,1.2-1.2S152.2-190.2,152.2-189.6z"/>
			<path class="st3" d="M148.6-121.1c0,0.8-0.6,1.4-1.4,1.4s-1.4-0.6-1.4-1.4c0-0.8,0.6-1.4,1.4-1.4S148.6-121.9,148.6-121.1z"/>
			<path class="st2" d="M233.1-143.1c0,0.7-0.5,1.2-1.2,1.2s-1.2-0.5-1.2-1.2c0-0.7,0.5-1.2,1.2-1.2S233.1-143.7,233.1-143.1z"/>
			<path class="st1" d="M195.9-125.1c0,1.9-1.5,3.4-3.4,3.4c-1.9,0-3.4-1.5-3.4-3.4c0-1.9,1.5-3.4,3.4-3.4
				C194.3-128.5,195.9-127,195.9-125.1z"/>
			<path class="st2" d="M200.8-85.3c0,1.2-0.9,2.1-2.1,2.1c-1.2,0-2.1-0.9-2.1-2.1s0.9-2.1,2.1-2.1
				C199.9-87.4,200.8-86.4,200.8-85.3z"/>
			<path class="st2" d="M162-91.6c0,0.9-0.7,1.6-1.6,1.6c-0.9,0-1.6-0.7-1.6-1.6c0-0.9,0.7-1.6,1.6-1.6
				C161.3-93.1,162-92.4,162-91.6z"/>
			<circle class="st1" cx="233.1" cy="-205.6" r="2.6"/>
			<circle class="st3" cx="223.1" cy="-170.8" r="2.4"/>
			<path class="st2" d="M127.7-164.2c0,1.4-1.2,2.6-2.6,2.6c-1.4,0-2.6-1.2-2.6-2.6c0-1.4,1.2-2.6,2.6-2.6
				C126.5-166.8,127.7-165.6,127.7-164.2z"/>
			<path class="st3" d="M122.7-171.3c0,0.7-0.6,1.3-1.3,1.3c-0.7,0-1.3-0.6-1.3-1.3s0.6-1.3,1.3-1.3
				C122.1-172.6,122.7-172,122.7-171.3z"/>
			<path class="st2" d="M186.9-119.4c0,0.9-0.7,1.6-1.6,1.6c-0.9,0-1.6-0.7-1.6-1.6c0-0.9,0.7-1.6,1.6-1.6
				C186.2-120.9,186.9-120.2,186.9-119.4z"/>
		</g>
		<g>
			<path class="st3" d="M85-147c-3.2,4.7,1,10.7-1.4,15.2c-2.4,4.5-6.7,5-9.9,2.6c-3.6-2.8-3.4-6.6-8.3-8.8
				c-5.5-2.5-18,2.2-19.7-7.3c-0.9-4.8,2.4-8.6,7.3-9.7c6.1-1.4,9.4-0.2,15.4-3.1c6.1-2.9,11.2-9,22.1-12.1
				c10.4-3,16.1,1.6,16.6,5.9C108.2-155.9,90-154.4,85-147z M82.8-154.5c0-1.2-1-2.2-2.2-2.2c-1.2,0-2.2,1-2.2,2.2
				c0,1.2,1,2.2,2.2,2.2C81.8-152.2,82.8-153.2,82.8-154.5z"/>
			<path class="st2" d="M112-107.9c0,17.2-14.5,25.5-27,22.8c-10.3-2.2-12.8-17.3-16.7-26.2c-3.7-8.6-8.8-22.5-20.2-22.5
				c-11.2,0-12.8,14.5-23.7,14.5c-11,0-24.5-15.7-24.5-39.7c0-14.7,9.8-31.5,20.8-30.7c11.7,0.8,4.5,19.7,15.3,19.7
				c9.5,0,7.9-16.3,9.2-23.3c1.7-9,6.8-14.2,18.5-13.2c14.4,1.2,22.3,13.5,18.9,23.3c-4,11.5-23.9,17.3-21.5,30.5
				c1.3,7.6,13,12,26,16.2C101.7-131.7,112-125,112-107.9z M67-183.7c0,1.8,1.5,3.3,3.3,3.3c1.8,0,3.3-1.5,3.3-3.3s-1.5-3.3-3.3-3.3
				C68.5-187,67-185.5,67-183.7z M20.4-158.8c0-1-0.8-1.7-1.7-1.7c-1,0-1.7,0.8-1.7,1.7c0,1,0.8,1.7,1.7,1.7
				C19.6-157.1,20.4-157.8,20.4-158.8z M37.8-148.1c0-2.1-1.7-3.8-3.8-3.8c-2.1,0-3.8,1.7-3.8,3.8c0,2.1,1.7,3.8,3.8,3.8
				C36.1-144.3,37.8-146,37.8-148.1z M57.7-163.6c0-0.9-0.7-1.6-1.6-1.6c-0.9,0-1.6,0.7-1.6,1.6c0,0.9,0.7,1.6,1.6,1.6
				C57-162.1,57.7-162.8,57.7-163.6z M87.4-108.9c0-1.8-1.4-3.2-3.2-3.2c-1.8,0-3.2,1.4-3.2,3.2c0,1.8,1.4,3.2,3.2,3.2
				C85.9-105.8,87.4-107.2,87.4-108.9z"/>
			<path class="st2" d="M109.2-128.1c0-8.4-5.1-15.2-11.3-15.2c-6.3,0-11.3,6.8-11.3,15.2c0,8.4,5.1,12.4,11.3,12.4
				C104.1-115.6,109.2-119.7,109.2-128.1z"/>
		</g>
	</g>
</pattern>
<linearGradient id="SVGID_1_" gradientUnits="userSpaceOnUse" x1="-26.6234" y1="-43.1818" x2="-25.9163" y2="-42.4747">
	<stop  offset="0" style="stop-color:#DEDFE3"/>
	<stop  offset="0.1738" style="stop-color:#D8D9DD"/>
	<stop  offset="0.352" style="stop-color:#C9CACD"/>
	<stop  offset="0.5323" style="stop-color:#B4B5B8"/>
	<stop  offset="0.7139" style="stop-color:#989A9C"/>
	<stop  offset="0.8949" style="stop-color:#797C7E"/>
	<stop  offset="1" style="stop-color:#656B6C"/>
</linearGradient>
<g>
	<linearGradient id="SVGID_2_" gradientUnits="userSpaceOnUse" x1="5.9434" y1="66.5013" x2="61.3269" y2="66.5013">
		<stop  offset="0" style="stop-color:#B5C634"/>
		<stop  offset="1" style="stop-color:#A93292"/>
	</linearGradient>
	<path class="st4" d="M56.4,59.6c-1-1-9.9-2.3-14.9-3.3c-1.3,2.9-3.7,5-7.9,5c-4.1,0-6.6-2.1-7.9-5c-5,1-13.9,2.3-14.9,3.3
		C9.5,60.9,7.2,67.9,6,72.8c-0.5,2,1.3,3.9,3.6,3.9h24h24c2.3,0,4.1-1.9,3.6-3.9C60.1,67.9,57.7,60.9,56.4,59.6z"/>
	<path class="st5" d="M33.2,54.7c-2.4,0-4.6-0.5-6.6-1.4l-0.8,3.1c1.3,2.9,3.7,4.9,7.8,4.9s6.5-2,7.8-4.9l-0.7-3.1
		C38.5,54.2,35.9,54.7,33.2,54.7z"/>
	<path class="st6" d="M18.7,41.7c0,0-2.8-3-2.7,0.6c0.1,3.6,3.2,6.2,4.2,6.4C21.2,48.9,20,42.8,18.7,41.7z"/>
	<path class="st6" d="M47.9,41.7c0,0,2.8-3,2.7,0.6c-0.1,3.6-3.2,6.2-4.2,6.4C45.4,48.9,46.6,42.8,47.9,41.7z"/>
	<path class="st7" d="M47.1,30.2c0-1.2-10.6-2.8-15.3-2.9c0,0-10.2,2.9-11.6,3.2c-1.4,0.3-2.3,9.6-1.9,12.8C19,48.4,25,55,33.2,55
		c7.8,0,14.3-3.9,15.3-13.2C47.8,39,47.1,31.2,47.1,30.2z"/>
	<path class="st8" d="M20.5,48.4c0,0-2.7-3.4-2.9-8.4c-0.1-2.4-2.5-11.5,2.9-14.9c5.4-3.4,8.6-4.1,13-4c4.4,0.2,15,1.6,15.4,9.4
		c0.5,7.8,0.6,7.7,0,10.1c-0.6,2.4-2.6,7.7-2.6,7.7s0.4-7.2,0.6-7.9c0.2-0.8-2-2.9-2.2-3.3c-0.2-0.4-0.3,3.2,0.8,4.1
		c1.1,0.9-6.5-2.7-7.8-4.8c0,0,0.9,2.3,1.5,3.2c0,0-12.5-7.6-13.8-10.8c0,0-6.3,7.1-6.2,8.3C19.5,38.4,21.1,46.5,20.5,48.4z"/>
	<path class="st9" d="M44,61.4c-6.7,2.1-14,2.1-20.8,0c-1.7-0.5-2.6-2-2-3c0.4-0.7,0.8-1.4,1.1-2.1c0.6-1.1,2.1-1.5,3.4-1.1
		c5.1,1.6,10.7,1.6,15.8,0c1.3-0.4,2.8,0,3.4,1.1c0.4,0.7,0.8,1.4,1.1,2.1C46.7,59.4,45.8,60.9,44,61.4z"/>
</g>
<g>
	<pattern  id="SVGID_3_" xlink:href="#Alyssa" patternTransform="matrix(1 0 0 1 -11.9608 -103.8262)">
	</pattern>
	<path class="st10" d="M132.7,71.8l-2.4-6.9c-0.3-1-1.2-1.7-2.4-2l-14-3.1c0,0-0.8,10.3-6.8,10.3c-6.1,0-6.8-10.3-6.8-10.3l-14,3.1
		c-1.1,0.2-2,1-2.4,2l-2.4,6.9c-0.7,1.9,0.9,3.8,3.2,3.8h22.5h22.5C131.8,75.5,133.4,73.6,132.7,71.8z"/>
	<path class="st11" d="M108.5,56.1c-0.9,0.3-2,0.3-2.9,0c-1.5-0.4-2.8-1.1-4-2l-1.4,5.6c0,0,0.8,10.3,6.8,10.3
		c6.1,0,6.8-10.3,6.8-10.3l-1.4-5.6C111.4,55,110,55.7,108.5,56.1z"/>
	<path class="st12" d="M100.9,56.8l-3.2,2.4c-1.1,0.8-2.7,1-4,0.4c-1.3-0.6-3-1.2-4.1-1.2c-2.1,0-4.4-1.7-4.1-4.8s-2.1-2.3-2.3-3.6
		c-0.3-1.3,0.6-3.8,2.5-4.6c1.9-0.8-0.8-4-0.9-4.5c-0.1-0.4-1.7-3.6,2.5-6.6c4.2-3,5.7-5.8,7-7.5c1.3-1.6,9.1-5.5,13-3.3
		c0,0,5.4-3,9.2-0.2c3.8,2.8,7.5,9.5,8.8,10c1.2,0.5,4.5,6.2,3.6,8.8c-0.9,2.6,0.3,3.9,1.4,4.4c1.1,0.5,1.6,3-1.2,5.9
		c-2.8,3,2.5,4.1,2.5,4.1s0.2,2-4,2.2c-4.3,0.1-7.6,1.9-8.5,1.7c-0.5-0.1-5.5-3.8-5.5-3.8s5.8-7.2,6.1-11s0.1-5.8-3.6-5.8
		c-3.8-0.1-4.4,0.8-6.5-2c-2-2.8-6.1-2.7-7-3c-0.5-0.1-1.4-0.3-2.5-0.6c-1.4-0.4-2.9,0.1-3.7,1.2c-0.2,0.3-0.5,0.6-0.9,0.9
		c-2,1.7-1.7,2.8-1,6.8C94.8,47.4,96.8,52.4,100.9,56.8z"/>
	<path class="st6" d="M96.5,46.7c0,0-4.2-4-4.3-1.1c-0.1,3,4,8.3,5.9,7.2C100.1,51.7,96.5,46.7,96.5,46.7z"/>
	<path class="st7" d="M119.3,45.9c0.3-3.8,0.1-5.8-3.6-5.8c-3.8-0.1-4.4,0.8-6.5-2c-2-2.8-6.1-2.7-7-3c-0.4-0.1-1.3-0.2-2.3-0.5
		c-1.5-0.4-3.1,0.1-3.9,1.3c-0.2,0.3-0.5,0.6-0.8,0.8c-2,1.7-1.7,2.8-1,6.8c0.7,4,2.7,9,6.7,13.4c1.7,1.5,3.8,2.5,6.2,3
		c2.5-0.4,4.5-1.5,6.2-2.9C113.5,56.6,119,49.7,119.3,45.9z"/>
</g>
<g>
	<path class="st13" d="M201,59.6c-1-1-9.9-2.3-14.9-3.3c-1.3,2.9-3.7,5-7.9,5c-4.1,0-6.6-2.1-7.9-5c-5,1-13.9,2.3-14.9,3.3
		c-1.4,1.4-3.7,8.4-4.9,13.3c-0.5,2,1.3,3.9,3.6,3.9h24h24c2.3,0,4.1-1.9,3.6-3.9C204.7,67.9,202.3,60.9,201,59.6z"/>
	<path class="st5" d="M177.7,54.7c-2.4,0-4.6-0.5-6.6-1.4l-0.8,3.1c1.3,2.9,3.7,4.9,7.8,4.9c4.1,0,6.5-2,7.8-4.9l-0.7-3.1
		C183,54.2,180.5,54.7,177.7,54.7z"/>
	<path class="st6" d="M163.2,41.7c0,0-2.8-3-2.7,0.6c0.1,3.6,3.2,6.2,4.2,6.4C165.8,48.9,164.5,42.8,163.2,41.7z"/>
	<path class="st6" d="M192.5,41.7c0,0,2.8-3,2.7,0.6c-0.1,3.6-3.2,6.2-4.2,6.4C189.9,48.9,191.2,42.8,192.5,41.7z"/>
	<path class="st7" d="M191.7,30.2c0-1.2-10.6-2.8-15.3-2.9c0,0-10.2,2.9-11.6,3.2c-1.4,0.3-2.3,9.6-1.9,12.8
		c0.7,5.2,6.6,11.8,14.8,11.8c7.8,0,14.3-3.9,15.3-13.2C192.3,39,191.7,31.2,191.7,30.2z"/>
	<path class="st8" d="M165.1,48.4c0,0-2.7-3.4-2.9-8.4c-0.1-2.4-2.5-11.5,2.9-14.9c5.4-3.4,8.6-4.1,13-4c4.4,0.2,15,1.6,15.4,9.4
		c0.5,7.8,0.6,7.7,0,10.1c-0.6,2.4-2.6,7.7-2.6,7.7s0.4-7.2,0.6-7.9c0.2-0.8-2-2.9-2.2-3.3c-0.2-0.4-0.3,3.2,0.8,4.1
		c1.1,0.9-6.5-2.7-7.8-4.8c0,0,0.9,2.3,1.5,3.2c0,0-12.5-7.6-13.8-10.8c0,0-6.3,7.1-6.2,8.3C164.1,38.4,165.7,46.5,165.1,48.4z"/>
	<path class="st9" d="M188.6,61.4c-6.7,2.1-14,2.1-20.8,0c-1.7-0.5-2.6-2-2-3c0.4-0.7,0.8-1.4,1.1-2.1c0.6-1.1,2.1-1.5,3.4-1.1
		c5.1,1.6,10.7,1.6,15.8,0c1.3-0.4,2.8,0,3.4,1.1c0.4,0.7,0.8,1.4,1.1,2.1C191.2,59.4,190.3,60.9,188.6,61.4z"/>
</g>
</svg>
