<?xml version="1.0" encoding="utf-8"?>
<!-- Generator: Adobe Illustrator 22.0.0, SVG Export Plug-In . SVG Version: 6.00 Build 0)  -->
<svg version="1.1" id="Layer_1" xmlns="http://www.w3.org/2000/svg" xmlns:xlink="http://www.w3.org/1999/xlink" x="0px" y="0px"
	 viewBox="0 0 250 200" style="enable-background:new 0 0 250 200;" xml:space="preserve">
<style type="text/css">
	.st0{fill:none;}
	.st1{fill:#1A447D;}
	.st2{opacity:0.4;fill:#9EDDF9;enable-background:new    ;}
	.st3{fill:#4E4E4E;}
	.st4{fill:url(#SVGID_1_);}
	.st5{fill:#31231A;}
	.st6{fill:url(#SVGID_2_);}
	.st7{fill:url(#SVGID_3_);}
	.st8{fill:#FBB03B;}
	.st9{fill:#DE9175;}
	.st10{fill:#E6977B;}
	.st11{fill:#F8A688;}
	.st12{fill:#6D4D3A;}
	.st13{fill:#2E4459;}
	.st14{fill:url(#SVGID_4_);}
	.st15{fill:#E49678;}
</style>
<pattern  y="200" width="108.3" height="109.6" patternUnits="userSpaceOnUse" id="SVGID_5_" viewBox="47.6 -131.8 108.3 109.6" style="overflow:visible;">
	<g>
		<rect x="47.6" y="-131.8" class="st0" width="108.3" height="109.6"/>
		<g>
			<rect x="47.6" y="-131.8" class="st0" width="108.3" height="109.6"/>
			<g>
				<path class="st1" d="M135-166.6c0,0.1,0.1,0.2,0.2,0.2c12.9,0.1,24.8,3.3,34,11.5c-8-5.6-22.9-7.5-31.5-3.6
					c-0.1,0-0.2,0.2-0.1,0.3c0,0.1,0.1,0.2,0.3,0.2c10.7-0.3,19.3,3,26,9c-6.9,0.4-12.6,4.7-12.6,9.8c0,0.1,0.1,0.2,0.2,0.2
					c0.1,0,0.2,0,0.3-0.1c1.1-2.5,4.7-3.8,8.6-2.9c4.2,1,7,4.2,6.3,7.2c-0.5,2-2.4,3.4-5,3.8c-0.1,0-0.2,0.1-0.2,0.3
					c0,0.1,0.1,0.2,0.2,0.2c1.1,0.1,2.2,0.1,3.3,0c6.5-0.6,11.5-4.6,11.9-9.2c4.7,0.5,8.9,3.2,10.4,6.8c0,0.1,0.2,0.2,0.3,0.2
					s0.2-0.1,0.2-0.2c0.4-4.8-1.3-7.8-5-10.9c5.4,2.1,11.4,2.2,17.3-0.5c0.1,0,0.2-0.2,0.1-0.3c0-0.1-0.1-0.2-0.2-0.2
					c-4.9-0.2-8.4-1.8-11.7-5.1c18.3,5.1,33.1-6.2,28-23.1c0-0.1-0.1-0.2-0.3-0.2c-0.1,0-0.2,0.1-0.2,0.2
					c-0.9,9.7-7.7,16.1-17.9,17.1c5.4-2.1,11-7,11.6-15.5c0-0.1-0.1-0.2-0.2-0.3c-0.1,0-0.2,0-0.3,0.1c-2.8,6.2-8.3,9.3-14.2,9.8
					c6.3-2.6,10.4-8.6,11.6-16.4c0-0.1-0.1-0.2-0.2-0.3c-0.1,0-0.2,0-0.3,0.1c-3.9,7.6-12.2,12.8-22.4,8.8
					c-10.6-4.1-15.3-16.4-16.3-25c0-0.1-0.1-0.2-0.2-0.2c-0.1,0-0.2,0.1-0.3,0.2c-3.7,15.7,3.6,31.9,16.6,38.8
					c-7.1-2-13.4-6.3-17-13.4c-8.3-1-14-3.9-16.9-9.2c-0.1-0.1-0.2-0.2-0.3-0.1c-0.1,0-0.2,0.1-0.2,0.3c0.2,2.1,0.9,6.3,4.1,8.3
					c-7,0-12.5,0.9-17.8,3C135.1-166.8,135-166.7,135-166.6z M164.5-220c-0.1,0.1-0.2,0.1-0.3,0c-0.1-0.1-0.1-0.2,0-0.3
					c1.6-2.8,0.1-6.8-3.1-6.8c-5.7,0-8.5,10.8-7.6,20.6c2.2-5.8,4-8.1,7.3-10.8c0.1-0.1,0.2-0.1,0.3,0s0.1,0.2,0.1,0.3
					c-4.9,9.1-5.9,16.1-5.9,24.1c1.5-6,3.2-9.3,8.1-14.4c0.1-0.1,0.2-0.1,0.3,0c0.1,0.1,0.1,0.2,0.1,0.3
					c-5.3,11.6-4.9,24.4-0.9,34.3c0,0.1,0,0.2-0.1,0.3s-0.2,0.1-0.3,0c-5.2-2.6-8.3-4.2-12.8-10.4c1.4-7.4,0.2-11-3.2-17.2
					c3.9,9.9,1.8,23.9-8.2,29.6c-0.1,0.1-0.2,0-0.3-0.1c-0.1-0.1-0.1-0.2,0-0.3c3.8-4,6.5-10.6,4.2-17.9
					c1.5,10.4-7.6,19.1-17.8,19.1c-9.6,0-16.2-7.5-15.6-14.9c0.5-7.4,5.4-11,9.7-12.5c0.1,0,0.2,0,0.3,0.1c0.1,0.1,0,0.2,0,0.3
					c-5.6,5.7-6.4,16.5,3.6,19.8c-5.9-5.1-3.7-16.8,5.7-17.7c0.1,0,0.2,0.1,0.3,0.2c0,0.1,0,0.2-0.1,0.3c-2,1.3-3.7,3.8-3.7,6.6
					c0,4.7,3.4,6.5,5.7,6.5c3.4,0,6.3-3.3,6.3-8.2c0-5.8-5.3-10.7-12-11.4c-6.6-0.7-12.8,2.2-15.8,6.5c-0.1,0.1-0.2,0.1-0.3,0.1
					s-0.2-0.2-0.1-0.3c3-11.7,16.8-16.9,26.9-9.5c-6.6-7.5-17-7.6-25.7,0.1c-0.1,0.1-0.2,0.1-0.3,0c-0.1-0.1-0.1-0.2-0.1-0.3
					c2.7-5.4,9.3-11.8,18.6-10.9c8.6,0.9,13.5,9,14.5,15.7c0.6-8.5-1.4-14.5-8.8-20.1c-0.1-0.1-0.1-0.2-0.1-0.3
					c0.1-0.1,0.2-0.2,0.3-0.1c6.8,2,12.2,5.4,15,12.5c0-6.2-2.1-12.4-7.5-16.5c-0.1-0.1-0.1-0.2-0.1-0.3c0-0.1,0.2-0.2,0.3-0.1
					c3.5,1,6.2,2.5,8.1,5.2c1.3-11.1,6.5-17.7,12.5-17.7c4.1,0,7.2,3,7.2,7.9C169.3-226.2,167.8-222.2,164.5-220z M263.7-128.4
					c-3.2,3.9-9.5,5.4-16.4,4c0.5,4.3-0.3,8.8-1.6,11.5c-0.1,0.1-0.2,0.2-0.3,0.1c-0.1,0-0.2-0.1-0.2-0.3
					c0.4-8.8-4.6-15.8-13.4-18.9c6.9,4.8,8.9,14.2,5.6,19.1c-0.1,0.1-0.2,0.1-0.3,0.1s-0.2-0.2-0.2-0.3c0.4-2.1-0.6-4.7-2.7-6.7
					c-2.9-2.8-6.8-3.5-8.8-1.4c-2,2-1.2,5.9,1.7,8.8c1.1,1,2.3,1.8,3.4,2.2c0.1,0,0.2,0.2,0.2,0.3s-0.1,0.2-0.2,0.2
					c-6.4,0.6-10.8-3.3-13.5-7.9c-2.8-4.7-7.6-8.4-13.2-7.7c-0.1,0-0.2-0.1-0.3-0.2c0-0.1,0-0.2,0.1-0.3c2.8-1.7,5.9-2.4,9.9-1.1
					c-5.8-4.9-14-7.7-21.8-5.2c-0.1,0-0.2,0-0.3-0.1c-0.1-0.1-0.1-0.2,0-0.3c5.9-6.6,17.7-6.7,25.1-1.4c-3-4.3-7.1-7.5-14.3-8.5
					c-0.1,0-0.2-0.1-0.2-0.2c0-0.1,0.1-0.2,0.2-0.3c8.3-3.1,16.6,0,23.4,8.2c-3-6.4-7.9-11.5-14.8-14c-0.1,0-0.2-0.2-0.2-0.3
					s0.1-0.2,0.2-0.2c3.9-0.1,7.5,0.9,12.3,3.6c-3.5-5.7-2.7-15.6,2.4-22.3c0.1-0.1,0.2-0.1,0.3-0.1s0.2,0.2,0.1,0.3
					c-1.2,7.2,1.3,15.3,5.6,19.6c-2.2-7.6,0-14.6,5.9-19.6c0.1-0.1,0.2-0.1,0.3,0c0.1,0,0.1,0.1,0.2,0.2c1.2,9.4,11.8,19,20.6,19.8
					c0.1,0,0.2,0.1,0.2,0.2c0,0.1-0.1,0.2-0.2,0.3c-4.3,1-8.7,0.5-12.4-1c2.7,2.9,5.9,5.1,9.6,6.2c0.1,0,0.2,0.2,0.2,0.3
					c0,0.1-0.1,0.2-0.2,0.2c-4.5,0.3-8.9-1-12.7-3.5c4.4,6.6,11,11.5,19.4,13.5c0.1,0,0.2,0.1,0.2,0.3c0,0.1-0.1,0.2-0.2,0.2
					c-11.9,1.3-21.7-3.3-28.2-11.9c1.6,4.9,6.4,9.8,12.9,12.6c5.8,2.5,11.8,2.9,16.4,1.5c0.1,0,0.2,0,0.3,0.1
					C263.8-128.6,263.8-128.5,263.7-128.4z M210.8-204c4.8,10.5,4.5,18.7,0.6,29.1c0,0.1-0.2,0.2-0.3,0.2s-0.2-0.1-0.2-0.3
					c0.6-12.6-2.8-21.7-10.3-27.8c8.2,9.9,4.4,29.6-8.8,29.6c-9.6,0-17.5-8-19.5-17.5c0-0.1,0-0.2,0.2-0.3c0.1,0,0.2,0,0.3,0.1
					c2.8,4.8,7.4,7.9,12.5,7.9c8.1,0,10.5-6.5,10.5-11c0-6.2-4.9-11.3-8.7-11.3c-3.4,0-5,2.8-5,4.9c0,3.9,3,7.2,6.4,8.2
					c0.1,0,0.2,0.2,0.2,0.3c0,0.1-0.1,0.2-0.2,0.2c-4.1,0-7.6-1.9-9.6-5.6c-0.3,2.9-0.3,4.7,0.6,7.7c0,0.1,0,0.2-0.1,0.3
					c-0.1,0.1-0.2,0-0.3-0.1c-7.4-9.4-3.8-25.6,2-32.4c-5.5,4-10.4,12.6-10.3,24.4c0,0.1-0.1,0.2-0.2,0.2c-0.1,0-0.2,0-0.3-0.2
					c-4.1-10.3-1.9-29.2,9.3-39.9c-2.9-0.4-5.9-0.3-9.1,0.7c-0.1,0-0.2,0-0.3-0.1c-0.1-0.1,0-0.2,0.1-0.3c4.1-3.5,9.8-4.5,15.3-4.5
					c-4.7,5.5-3.1,16.6,4.4,16.6c5.3,0,7.8-8.3,3.6-12.8c-0.1-0.1-0.1-0.2,0-0.3c0.1-0.1,0.2-0.1,0.3-0.1c4.8,1.7,9.9,5.8,9.9,11
					c0,5-4.8,9.4-11.8,9.1c8.8,2.5,18.1-0.3,22.9-6.3c0.1-0.1,0.2-0.1,0.3-0.1c0.1,0.1,0.2,0.2,0.1,0.3c-2.8,10.7-12,15.2-23.4,13.7
					c9.3,3.8,23.2,0.5,29.4-7.3c0.1-0.1,0.2-0.1,0.3-0.1c0.1,0.1,0.2,0.2,0.1,0.3C220.1-210.9,216.6-205.9,210.8-204z"/>
				<path class="st2" d="M237.2-184.7c0-0.1-0.1-0.2-0.2-0.2c-12.9-0.1-24.8-3.3-34-11.5c8,5.6,22.9,7.5,31.5,3.6
					c0.1-0.1,0.2-0.2,0.1-0.3c0-0.1-0.1-0.2-0.3-0.2c-10.7,0.3-19.3-3-26-9c6.9-0.4,12.6-4.7,12.6-9.8c0-0.1-0.1-0.2-0.2-0.2
					c-0.1,0-0.2,0-0.3,0.1c-1.1,2.5-4.7,3.8-8.6,2.9c-4.2-1-7-4.2-6.3-7.2c0.5-2,2.4-3.4,5-3.8c0.1,0,0.2-0.1,0.2-0.3
					c0-0.1-0.1-0.2-0.2-0.2c-1.1-0.1-2.2-0.1-3.3,0c-6.5,0.6-11.5,4.6-11.9,9.2c-4.7-0.5-8.9-3.2-10.4-6.8c0-0.1-0.2-0.2-0.3-0.2
					s-0.2,0.1-0.2,0.2c-0.4,4.8,1.3,7.8,5,10.9c-5.4-2.1-11.4-2.2-17.3,0.5c-0.1,0.1-0.2,0.2-0.1,0.3c0,0.1,0.1,0.2,0.2,0.2
					c4.9,0.2,8.4,1.8,11.7,5.1c-18.3-5.1-33.1,6.2-28,23.1c0,0.1,0.1,0.2,0.3,0.2c0.1,0,0.2-0.1,0.2-0.2c0.9-9.7,7.7-16.1,17.9-17.1
					c-5.4,2.1-11,7-11.6,15.5c0,0.1,0.1,0.2,0.2,0.3c0.1,0,0.2,0,0.3-0.1c2.8-6.2,8.3-9.3,14.2-9.8c-6.3,2.6-10.4,8.6-11.6,16.4
					c0,0.1,0.1,0.2,0.2,0.3c0.1,0,0.2,0,0.3-0.1c3.9-7.6,12.2-12.8,22.4-8.8c10.6,4.1,15.3,16.4,16.3,25c0,0.1,0.1,0.2,0.2,0.2
					c0.1,0,0.2-0.1,0.3-0.2c3.7-15.7-3.6-31.9-16.6-38.8c7.1,2,13.4,6.3,17,13.4c8.3,1,14,3.9,16.9,9.2c0.1,0.1,0.2,0.2,0.3,0.1
					c0.1,0,0.2-0.1,0.2-0.3c-0.2-2.1-0.9-6.3-4.1-8.3c7,0,12.5-0.9,17.8-3C237.2-184.5,237.2-184.6,237.2-184.7z M207.7-131.2
					c0.1-0.1,0.2-0.1,0.3,0c0.1,0.1,0.1,0.2,0,0.3c-1.6,2.8-0.1,6.8,3.1,6.8c5.7,0,8.5-10.8,7.6-20.6c-2.2,5.8-4,8.1-7.3,10.8
					c-0.1,0.1-0.2,0.1-0.3,0c-0.1-0.1-0.1-0.2-0.1-0.3c4.9-9.1,5.9-16.1,5.9-24.1c-1.5,6-3.2,9.3-8.1,14.4c-0.1,0.1-0.2,0.1-0.3,0
					c-0.1-0.1-0.1-0.2-0.1-0.3c5.3-11.6,4.9-24.4,0.9-34.3c0-0.1,0-0.2,0.1-0.3c0.1-0.1,0.2-0.1,0.3,0c5.2,2.6,8.3,4.2,12.8,10.4
					c-1.4,7.4-0.2,11,3.2,17.2c-3.9-9.9-1.8-23.9,8.2-29.6c0.1-0.1,0.2,0,0.3,0.1c0.1,0.1,0.1,0.2,0,0.3c-3.8,4-6.5,10.6-4.2,17.9
					c-1.5-10.4,7.6-19.1,17.8-19.1c9.6,0,16.2,7.5,15.6,14.9c-0.5,7.4-5.4,11-9.7,12.5c-0.1,0-0.2,0-0.3-0.1c-0.1-0.1-0.1-0.2,0-0.3
					c5.6-5.7,6.4-16.5-3.6-19.8c5.9,5.1,3.7,16.8-5.7,17.7c-0.1,0-0.2-0.1-0.3-0.2c0-0.1,0-0.2,0.1-0.3c2-1.3,3.7-3.8,3.7-6.6
					c0-4.7-3.4-6.5-5.7-6.5c-3.4,0-6.3,3.3-6.3,8.2c0,5.8,5.3,10.7,12,11.4c6.6,0.7,12.8-2.2,15.7-6.5c0.1-0.1,0.2-0.1,0.3-0.1
					c0.1,0.1,0.2,0.2,0.1,0.3c-3,11.7-16.8,16.9-26.9,9.5c6.6,7.5,17,7.6,25.7-0.1c0.1-0.1,0.2-0.1,0.3,0c0.1,0.1,0.1,0.2,0.1,0.3
					c-2.7,5.4-9.3,11.8-18.6,10.9c-8.6-0.9-13.5-9-14.5-15.7c-0.6,8.5,1.4,14.5,8.8,20.1c0.1,0.1,0.1,0.2,0.1,0.3
					c-0.1,0.1-0.2,0.2-0.3,0.1c-6.8-2-12.2-5.4-15-12.5c0,6.2,2.1,12.4,7.5,16.5c0.1,0.1,0.1,0.2,0.1,0.3c-0.1,0.1-0.2,0.2-0.3,0.1
					c-3.5-1-6.2-2.5-8.1-5.2c-1.3,11.1-6.5,17.7-12.5,17.7c-4.1,0-7.2-3-7.2-7.9C202.9-125,204.4-129,207.7-131.2z M108.5-222.8
					c3.2-3.9,9.5-5.4,16.4-4c-0.5-4.3,0.3-8.8,1.6-11.5c0.1-0.1,0.2-0.2,0.3-0.1c0.1,0,0.2,0.1,0.2,0.3c-0.4,8.8,4.6,15.8,13.4,18.9
					c-6.9-4.8-8.9-14.2-5.6-19.1c0.1-0.1,0.2-0.1,0.3-0.1s0.2,0.2,0.2,0.3c-0.4,2.1,0.6,4.7,2.7,6.7c2.9,2.8,6.8,3.5,8.8,1.4
					c2-2,1.2-5.9-1.7-8.8c-1.1-1-2.3-1.8-3.4-2.2c-0.1,0-0.2-0.2-0.2-0.3c0-0.1,0.1-0.2,0.2-0.2c6.4-0.6,10.8,3.3,13.5,7.9
					c2.8,4.7,7.6,8.4,13.2,7.7c0.1,0,0.2,0.1,0.3,0.2c0,0.1,0,0.2-0.1,0.3c-2.8,1.7-5.9,2.4-9.9,1.1c5.8,4.9,14,7.7,21.8,5.2
					c0.1,0,0.2,0,0.3,0.1c0.1,0.1,0.1,0.2,0,0.3c-5.9,6.6-17.7,6.7-25.1,1.4c3,4.3,7.1,7.5,14.3,8.5c0.1,0,0.2,0.1,0.2,0.2
					c0,0.1-0.1,0.2-0.2,0.3c-8.3,3.1-16.6,0-23.4-8.2c3,6.4,7.9,11.5,14.8,14c0.1,0,0.2,0.2,0.2,0.3c0,0.1-0.1,0.2-0.2,0.2
					c-3.9,0.1-7.5-0.9-12.3-3.6c3.5,5.7,2.7,15.6-2.4,22.3c-0.1,0.1-0.2,0.1-0.3,0.1s-0.2-0.2-0.1-0.3c1.2-7.2-1.3-15.3-5.6-19.6
					c2.2,7.6,0,14.6-5.9,19.6c-0.1,0.1-0.2,0.1-0.3,0c-0.1,0-0.1-0.1-0.2-0.2c-1.2-9.4-11.8-19-20.6-19.8c-0.1,0-0.2-0.1-0.2-0.2
					s0.1-0.2,0.2-0.3c4.3-1,8.7-0.5,12.4,1c-2.7-2.9-5.9-5.1-9.6-6.2c-0.1,0-0.2-0.2-0.2-0.3c0-0.1,0.1-0.2,0.2-0.2
					c4.5-0.3,8.9,1,12.7,3.5c-4.4-6.6-11-11.5-19.4-13.5c-0.1,0-0.2-0.1-0.2-0.3c0-0.1,0.1-0.2,0.2-0.2c11.9-1.3,21.7,3.3,28.2,11.9
					c-1.6-4.9-6.4-9.8-12.9-12.6c-5.8-2.5-11.8-2.9-16.4-1.5c-0.1,0-0.2,0-0.3-0.1C108.4-222.6,108.4-222.8,108.5-222.8z
					 M161.4-147.3c-4.8-10.5-4.5-18.7-0.6-29.1c0-0.1,0.2-0.2,0.3-0.2s0.2,0.1,0.2,0.3c-0.6,12.6,2.8,21.7,10.3,27.8
					c-8.2-9.9-4.4-29.6,8.8-29.6c9.6,0,17.5,8,19.5,17.5c0,0.1,0,0.2-0.2,0.3c-0.1,0-0.2,0-0.3-0.1c-2.8-4.8-7.4-7.9-12.5-7.9
					c-8.1,0-10.5,6.5-10.5,11c0,6.2,4.9,11.3,8.7,11.3c3.4,0,5-2.8,5-4.9c0-3.9-3-7.2-6.4-8.2c-0.1,0-0.2-0.2-0.2-0.3
					s0.1-0.2,0.2-0.2c4.1,0,7.6,1.9,9.6,5.6c0.3-2.9,0.3-4.7-0.6-7.7c0-0.1,0-0.2,0.1-0.3c0.1-0.1,0.2,0,0.3,0.1
					c7.4,9.4,3.8,25.6-2,32.4c5.5-4,10.4-12.6,10.3-24.4c0-0.1,0.1-0.2,0.2-0.2c0.1,0,0.2,0,0.3,0.2c4.1,10.3,1.9,29.2-9.3,39.9
					c2.9,0.4,5.9,0.3,9.1-0.7c0.1,0,0.2,0,0.3,0.1s0,0.2-0.1,0.3c-4.1,3.5-9.8,4.5-15.3,4.5c4.7-5.5,3.1-16.6-4.4-16.6
					c-5.3,0-7.8,8.3-3.6,12.8c0.1,0.1,0.1,0.2,0,0.3c-0.1,0.1-0.2,0.1-0.3,0.1c-4.8-1.7-9.9-5.8-9.9-11c0-5,4.8-9.4,11.8-9.1
					c-8.8-2.5-18.1,0.3-22.9,6.3c-0.1,0.1-0.2,0.1-0.3,0.1c-0.1-0.1-0.2-0.2-0.1-0.3c2.8-10.7,12-15.2,23.4-13.7
					c-9.3-3.8-23.2-0.5-29.4,7.3c-0.1,0.1-0.2,0.1-0.3,0.1s-0.2-0.2-0.1-0.3C152.2-140.4,155.7-145.3,161.4-147.3z"/>
			</g>
			<g>
				<path class="st1" d="M26.7-166.6c0,0.1,0.1,0.2,0.2,0.2c12.9,0.1,24.8,3.3,34,11.5c-8-5.6-22.9-7.5-31.5-3.6
					c-0.1,0-0.2,0.2-0.1,0.3c0,0.1,0.1,0.2,0.3,0.2c10.7-0.3,19.3,3,26,9c-6.9,0.4-12.6,4.7-12.6,9.8c0,0.1,0.1,0.2,0.2,0.2
					c0.1,0,0.2,0,0.3-0.1c1.1-2.5,4.7-3.8,8.6-2.9c4.2,1,7,4.2,6.3,7.2c-0.5,2-2.4,3.4-5,3.8c-0.1,0-0.2,0.1-0.2,0.3
					c0,0.1,0.1,0.2,0.2,0.2c1.1,0.1,2.2,0.1,3.3,0c6.5-0.6,11.5-4.6,11.9-9.2c4.7,0.5,8.9,3.2,10.4,6.8c0,0.1,0.2,0.2,0.3,0.2
					c0.1,0,0.2-0.1,0.2-0.2c0.4-4.8-1.3-7.8-5-10.9c5.4,2.1,11.4,2.2,17.3-0.5c0.1,0,0.2-0.2,0.1-0.3c0-0.1-0.1-0.2-0.2-0.2
					c-4.9-0.2-8.4-1.8-11.7-5.1c18.3,5.1,33.1-6.2,28-23.1c0-0.1-0.1-0.2-0.3-0.2c-0.1,0-0.2,0.1-0.2,0.2
					c-0.9,9.7-7.7,16.1-17.9,17.1c5.4-2.1,11-7,11.6-15.5c0-0.1-0.1-0.2-0.2-0.3c-0.1,0-0.2,0-0.3,0.1c-2.8,6.2-8.3,9.3-14.2,9.8
					c6.3-2.6,10.4-8.6,11.6-16.4c0-0.1-0.1-0.2-0.2-0.3c-0.1,0-0.2,0-0.3,0.1c-3.9,7.6-12.2,12.8-22.4,8.8
					c-10.7-3.9-15.4-16.2-16.4-24.9c0-0.1-0.1-0.2-0.2-0.2c-0.1,0-0.2,0.1-0.3,0.2c-3.7,15.7,3.6,31.9,16.6,38.8
					c-7.1-2-13.4-6.3-17-13.4c-8.3-1-14-3.9-16.9-9.2c-0.1-0.1-0.2-0.2-0.3-0.1c-0.1,0-0.2,0.1-0.2,0.3c0.2,2.1,0.9,6.3,4.1,8.3
					c-7,0-12.5,0.9-17.8,3C26.7-166.8,26.7-166.7,26.7-166.6z M56.2-220c-0.1,0.1-0.2,0.1-0.3,0c-0.1-0.1-0.1-0.2,0-0.3
					c1.6-2.8,0.1-6.8-3.1-6.8c-5.7,0-8.5,10.8-7.6,20.6c2.2-5.8,4-8.1,7.3-10.8c0.1-0.1,0.2-0.1,0.3,0s0.1,0.2,0.1,0.3
					c-4.8,9-5.9,16-5.9,24c1.5-6,3.2-9.3,8.1-14.4c0.1-0.1,0.2-0.1,0.3,0c0.1,0.1,0.1,0.2,0.1,0.3c-5.3,11.6-4.9,24.4-0.9,34.3
					c0,0.1,0,0.2-0.1,0.3c-0.1,0.1-0.2,0.1-0.3,0c-5.2-2.5-8.2-4.2-12.7-10.4c1.4-7.4,0.2-11-3.2-17.2c3.9,9.9,1.8,23.9-8.2,29.6
					c-0.1,0.1-0.2,0-0.3-0.1c-0.1-0.1-0.1-0.2,0-0.3c3.8-4,6.5-10.6,4.2-17.9c1.5,10.4-7.6,19.1-17.8,19.1
					c-9.6,0-16.2-7.5-15.6-14.9c0.5-7.4,5.4-11,9.7-12.5c0.1,0,0.2,0,0.3,0.1c0.1,0.1,0,0.2,0,0.3c-5.6,5.7-6.4,16.5,3.6,19.8
					c-5.9-5.1-3.7-16.8,5.7-17.7c0.1,0,0.2,0.1,0.3,0.2c0,0.1,0,0.2-0.1,0.3c-2,1.3-3.7,3.8-3.7,6.6c0,4.7,3.4,6.5,5.7,6.5
					c3.4,0,6.3-3.3,6.3-8.2c0-5.8-5.3-10.7-12-11.4c-6.8-0.9-13,2-15.9,6.3c-0.1,0.1-0.2,0.1-0.3,0.1c-0.2,0-0.2-0.2-0.2-0.3
					c3-11.7,16.8-16.9,26.9-9.5c-6.6-7.5-17-7.6-25.7,0.1c-0.1,0.1-0.2,0.1-0.3,0c-0.1-0.1-0.1-0.2-0.1-0.3
					c2.7-5.4,9.3-11.8,18.6-10.9c8.6,0.9,13.5,9,14.5,15.7c0.6-8.5-1.4-14.5-8.8-20.1c-0.1-0.1-0.1-0.2-0.1-0.3
					c0.1-0.1,0.2-0.2,0.3-0.1c6.8,2,12.2,5.4,15,12.5c0-6.2-2.1-12.4-7.5-16.5c-0.1-0.1-0.1-0.2-0.1-0.3c0.1-0.1,0.2-0.2,0.3-0.1
					c3.5,1,6.2,2.5,8.1,5.2c1.3-11.1,6.5-17.7,12.5-17.7c4.1,0,7.2,3,7.2,7.9C61-226.2,59.5-222.2,56.2-220z M155.4-128.4
					c-3.2,3.9-9.5,5.4-16.4,4c0.5,4.3-0.3,8.8-1.6,11.5c-0.1,0.1-0.2,0.2-0.3,0.1c-0.1,0-0.2-0.1-0.2-0.3
					c0.4-8.8-4.6-15.8-13.4-18.9c6.9,4.8,8.9,14.2,5.6,19.1c-0.1,0.1-0.2,0.1-0.3,0.1s-0.2-0.2-0.2-0.3c0.4-2.1-0.6-4.7-2.7-6.7
					c-2.9-2.8-6.8-3.5-8.8-1.4c-2,2-1.2,5.9,1.7,8.8c1.1,1,2.3,1.8,3.4,2.2c0.1,0,0.2,0.2,0.2,0.3s-0.1,0.2-0.2,0.2
					c-6.4,0.6-10.8-3.3-13.5-7.9c-2.8-4.7-7.6-8.4-13.2-7.7c-0.1,0-0.2-0.1-0.3-0.2c0-0.1,0-0.2,0.1-0.3c2.8-1.7,5.9-2.4,9.9-1.1
					c-5.8-4.9-14-7.7-21.8-5.2c-0.1,0-0.2,0-0.3-0.1c-0.1-0.1-0.1-0.2,0-0.3c5.9-6.6,17.7-6.7,25.1-1.4c-3-4.3-7.1-7.5-14.3-8.5
					c-0.1,0-0.2-0.1-0.2-0.2c0-0.1,0.1-0.2,0.2-0.3c8.3-3.1,16.6,0,23.4,8.2c-3-6.4-7.9-11.5-14.8-14c-0.1,0-0.2-0.2-0.2-0.3
					s0.1-0.2,0.2-0.2c3.9-0.1,7.5,0.9,12.3,3.6c-3.5-5.7-2.7-15.6,2.4-22.3c0.1-0.1,0.2-0.1,0.3-0.1c0.1,0,0.2,0.2,0.1,0.3
					c-1.2,7.2,1.3,15.3,5.6,19.6c-2.2-7.6,0-14.6,5.9-19.6c0.1-0.1,0.2-0.1,0.3,0c0.1,0,0.1,0.1,0.2,0.2c1.2,9.4,11.8,19,20.6,19.8
					c0.1,0,0.2,0.1,0.2,0.2c0,0.1-0.1,0.2-0.2,0.3c-4.3,1-8.7,0.5-12.4-1c2.7,2.9,5.9,5.1,9.6,6.2c0.1,0,0.2,0.2,0.2,0.3
					c0,0.1-0.1,0.2-0.2,0.2c-4.5,0.3-8.9-1-12.7-3.5c4.4,6.6,11,11.5,19.4,13.5c0.1,0,0.2,0.1,0.2,0.3c0,0.1-0.1,0.2-0.2,0.2
					c-11.9,1.3-21.7-3.3-28.2-11.9c1.6,4.9,6.4,9.8,12.9,12.6c5.8,2.5,11.8,2.9,16.4,1.5c0.1,0,0.2,0,0.3,0.1
					C155.5-128.6,155.5-128.5,155.4-128.4z M102.5-204c4.8,10.5,4.5,18.7,0.6,29.1c0,0.1-0.2,0.2-0.3,0.2c-0.1,0-0.2-0.1-0.2-0.3
					c0.6-12.6-2.8-21.7-10.3-27.8c8.2,9.9,4.4,29.6-8.8,29.6c-9.6,0-17.5-8-19.5-17.5c0-0.1,0-0.2,0.2-0.3c0.1,0,0.2,0,0.3,0.1
					c2.8,4.8,7.4,7.9,12.5,7.9c8.1,0,10.5-6.5,10.5-11c0-6.2-4.9-11.3-8.7-11.3c-3.4,0-5,2.8-5,4.9c0,3.9,3,7.2,6.4,8.2
					c0.1,0,0.2,0.2,0.2,0.3c0,0.1-0.1,0.2-0.2,0.2c-4.1,0-7.6-1.9-9.6-5.6c-0.3,2.9-0.3,4.7,0.6,7.7c0,0.1,0,0.2-0.1,0.3
					c-0.1,0.1-0.2,0-0.3-0.1c-7.4-9.4-3.8-25.6,2-32.4c-5.5,4-10.4,12.6-10.3,24.4c0,0.1-0.1,0.2-0.2,0.2c-0.1,0-0.2,0-0.3-0.2
					c-4.1-10.3-1.9-29.2,9.3-39.9c-2.9-0.4-5.9-0.3-9.1,0.7c-0.1,0-0.2,0-0.3-0.1c-0.1-0.1,0-0.2,0.1-0.3c3.8-3.4,9.5-4.5,15-4.5
					c-4.7,5.5-3.1,16.6,4.4,16.6c5.3,0,7.8-8.3,3.6-12.8c-0.1-0.1-0.1-0.2,0-0.3c0.1-0.1,0.2-0.1,0.3-0.1c4.8,1.7,9.9,5.8,9.9,11
					c0,5-4.8,9.4-11.8,9.1c8.8,2.5,18.1-0.3,22.9-6.3c0.1-0.1,0.2-0.1,0.3-0.1c0.1,0.1,0.2,0.2,0.1,0.3c-2.8,10.7-12,15.2-23.4,13.7
					c9.3,3.8,23.2,0.5,29.4-7.3c0.1-0.1,0.2-0.1,0.3-0.1c0.1,0.1,0.2,0.2,0.1,0.3C111.8-210.9,108.3-205.9,102.5-204z"/>
				<path class="st2" d="M128.9-184.7c0-0.1-0.1-0.2-0.2-0.2c-12.9-0.1-24.8-3.3-34-11.5c8,5.6,22.9,7.5,31.5,3.6
					c0.1-0.1,0.2-0.2,0.1-0.3c0-0.1-0.1-0.2-0.3-0.2c-10.7,0.3-19.3-3-26-9c6.9-0.4,12.6-4.7,12.6-9.8c0-0.1-0.1-0.2-0.2-0.2
					s-0.2,0-0.3,0.1c-1.1,2.5-4.7,3.8-8.6,2.9c-4.2-1-7-4.2-6.3-7.2c0.5-2,2.4-3.4,5-3.8c0.1,0,0.2-0.1,0.2-0.3
					c0-0.1-0.1-0.2-0.2-0.2c-1.1-0.1-2.2-0.1-3.3,0c-6.5,0.6-11.5,4.6-11.9,9.2c-4.7-0.5-8.9-3.2-10.4-6.8c0-0.1-0.2-0.2-0.3-0.2
					c-0.1,0-0.2,0.1-0.2,0.2c-0.4,4.8,1.3,7.8,5,10.9c-5.4-2.1-11.4-2.2-17.3,0.5c-0.1,0.1-0.2,0.2-0.1,0.3c0,0.1,0.1,0.2,0.2,0.2
					c4.9,0.2,8.4,1.8,11.7,5.1c-18.3-5.1-33.1,6.2-28,23.1c0,0.1,0.1,0.2,0.3,0.2c0.1,0,0.2-0.1,0.2-0.2c1-9.8,7.8-16.2,17.9-17.1
					c-5.4,2.1-11,7-11.6,15.5c0,0.1,0.1,0.2,0.2,0.3c0.1,0,0.2,0,0.3-0.1c2.8-6.2,8.3-9.3,14.2-9.8c-6.3,2.6-10.4,8.6-11.6,16.4
					c0,0.1,0.1,0.2,0.2,0.3c0.1,0,0.2,0,0.3-0.1c3.9-7.6,12.2-12.8,22.4-8.8c10.6,4.1,15.3,16.4,16.3,25c0,0.1,0.1,0.2,0.2,0.2
					s0.2-0.1,0.3-0.2c3.7-15.7-3.6-31.9-16.6-38.8c7.1,2,13.4,6.3,17,13.4c8.3,1,14,3.9,16.9,9.2c0.1,0.1,0.2,0.2,0.3,0.1
					c0.1,0,0.2-0.1,0.2-0.3c-0.2-2.1-0.9-6.3-4.1-8.3c7,0,12.5-0.9,17.8-3C128.8-184.5,128.9-184.6,128.9-184.7z M99.4-131.2
					c0.1-0.1,0.2-0.1,0.3,0c0.1,0.1,0.1,0.2,0,0.3c-1.6,2.8-0.1,6.8,3.1,6.8c5.7,0,8.5-10.8,7.6-20.6c-2.2,5.8-4,8.1-7.3,10.8
					c-0.1,0.1-0.2,0.1-0.3,0c-0.1-0.1-0.1-0.2-0.1-0.3c4.9-9.1,5.9-16.1,5.9-24.1c-1.5,6-3.2,9.3-8.1,14.4c-0.1,0.1-0.2,0.1-0.3,0
					c-0.1-0.1-0.1-0.2-0.1-0.3c5.3-11.6,4.9-24.4,0.9-34.3c0-0.1,0-0.2,0.1-0.3c0.1-0.1,0.2-0.1,0.3,0c5.2,2.6,8.3,4.2,12.8,10.4
					c-1.4,7.4-0.2,11,3.2,17.2c-3.9-9.9-1.8-23.9,8.2-29.6c0.1-0.1,0.2,0,0.3,0.1c0.1,0.1,0.1,0.2,0,0.3c-3.8,4-6.5,10.6-4.2,17.9
					c-1.5-10.4,7.6-19.1,17.8-19.1c9.6,0,16.2,7.5,15.6,14.9c-0.5,7.4-5.4,11-9.7,12.5c-0.1,0-0.2,0-0.3-0.1c-0.1-0.1-0.1-0.2,0-0.3
					c5.6-5.7,6.4-16.5-3.6-19.8c5.9,5.1,3.7,16.8-5.7,17.7c-0.1,0-0.2-0.1-0.3-0.2c0-0.1,0-0.2,0.1-0.3c2-1.3,3.7-3.8,3.7-6.6
					c0-4.7-3.4-6.5-5.7-6.5c-3.4,0-6.3,3.3-6.3,8.2c0,5.8,5.3,10.7,12,11.4c6.6,0.7,12.8-2.2,15.8-6.5c0.1-0.1,0.2-0.1,0.3-0.1
					c0.1,0.1,0.2,0.2,0.1,0.3c-3,11.7-16.8,16.9-26.9,9.5c6.6,7.5,17,7.6,25.7-0.1c0.1-0.1,0.2-0.1,0.3,0c0.1,0.1,0.1,0.2,0.1,0.3
					c-2.7,5.4-9.3,11.8-18.6,10.9c-8.6-0.9-13.5-9-14.5-15.7c-0.6,8.5,1.4,14.5,8.8,20.1c0.1,0.1,0.1,0.2,0.1,0.3
					c-0.1,0.1-0.2,0.2-0.3,0.1c-6.8-2-12.2-5.4-15-12.5c0,6.2,2.1,12.4,7.5,16.5c0.1,0.1,0.1,0.2,0.1,0.3c-0.1,0.1-0.2,0.2-0.3,0.1
					c-3.5-1-6.2-2.5-8.1-5.2c-1.3,11.1-6.5,17.7-12.5,17.7c-4.1,0-7.2-3-7.2-7.9C94.6-125,96.1-129,99.4-131.2z M0.2-222.8
					c3.2-3.9,9.5-5.4,16.4-4c-0.5-4.3,0.3-8.8,1.6-11.5c0.1-0.1,0.2-0.2,0.3-0.2s0.2,0.1,0.2,0.3c-0.4,8.8,4.6,15.8,13.4,18.9
					c-6.9-4.7-8.9-14.2-5.6-19c0.1-0.1,0.2-0.1,0.3-0.1c0.1,0,0.2,0.2,0.2,0.3c-0.4,2.1,0.6,4.7,2.7,6.7c2.9,2.8,6.8,3.5,8.8,1.4
					c2-2,1.2-5.9-1.7-8.8c-1.1-1-2.3-1.8-3.4-2.2c-0.1,0-0.2-0.2-0.2-0.3c0-0.1,0.1-0.2,0.2-0.2c6.4-0.6,10.8,3.3,13.5,7.9
					c2.8,4.7,7.6,8.4,13.2,7.7c0.1,0,0.2,0.1,0.3,0.2c0,0.1,0,0.2-0.1,0.3c-2.8,1.7-5.9,2.4-9.9,1.1c5.8,4.9,14,7.7,21.8,5.2
					c0.1,0,0.2,0,0.3,0.1c0.1,0.1,0.1,0.2,0,0.3c-5.9,6.6-17.7,6.7-25.1,1.4c3,4.3,7.1,7.5,14.3,8.5c0.1,0,0.2,0.1,0.2,0.2
					c0,0.1-0.1,0.2-0.2,0.3c-8.3,3.1-16.6,0-23.4-8.2c3,6.4,7.9,11.5,14.8,14c0.1,0,0.2,0.2,0.2,0.3c0,0.1-0.1,0.2-0.2,0.2
					c-3.9,0.1-7.5-0.9-12.3-3.6c3.5,5.7,2.7,15.6-2.4,22.3c-0.1,0.1-0.2,0.1-0.3,0.1s-0.2-0.2-0.1-0.3c1.2-7.2-1.3-15.3-5.6-19.6
					c2.2,7.6,0,14.6-5.9,19.6c-0.1,0.1-0.2,0.1-0.3,0c-0.1,0-0.1-0.1-0.2-0.2c-1.2-9.4-11.8-19-20.6-19.8c-0.1,0-0.2-0.1-0.2-0.2
					s0.1-0.2,0.2-0.3c4.3-1,8.7-0.5,12.4,1c-2.7-2.9-5.9-5.1-9.6-6.2c-0.1-0.1-0.2-0.2-0.2-0.3c0-0.1,0.1-0.2,0.2-0.2
					c4.5-0.3,8.9,1,12.7,3.5c-4.4-6.6-11-11.5-19.4-13.5c-0.1,0-0.2-0.1-0.2-0.3c0-0.1,0.1-0.2,0.2-0.2c11.9-1.3,21.7,3.3,28.2,11.9
					c-1.6-4.9-6.4-9.8-12.9-12.6c-5.8-2.6-11.8-3-16.4-1.5c-0.1,0-0.2,0-0.3-0.1C0.1-222.6,0.1-222.8,0.2-222.8z M53.1-147.3
					c-4.8-10.5-4.5-18.7-0.6-29.1c0-0.1,0.2-0.2,0.3-0.2s0.2,0.1,0.2,0.3c-0.6,12.6,2.8,21.7,10.3,27.8c-8.2-9.9-4.4-29.6,8.8-29.6
					c9.6,0,17.5,8,19.5,17.5c0,0.1,0,0.2-0.2,0.3c-0.1,0-0.2,0-0.3-0.1c-2.8-4.8-7.4-7.9-12.5-7.9c-8.1,0-10.5,6.5-10.5,11
					c0,6.2,4.9,11.3,8.7,11.3c3.4,0,5-2.8,5-4.9c0-3.9-3-7.2-6.4-8.2c-0.1,0-0.2-0.2-0.2-0.3s0.1-0.2,0.2-0.2c4.1,0,7.6,1.9,9.6,5.6
					c0.3-2.9,0.3-4.7-0.6-7.7c0-0.1,0-0.2,0.1-0.3c0.1-0.1,0.2,0,0.3,0.1c7.4,9.4,3.8,25.6-2,32.4c5.5-4,10.4-12.6,10.3-24.4
					c0-0.1,0.1-0.2,0.2-0.2s0.2,0,0.3,0.2c4.1,10.3,1.9,29.2-9.3,39.9c2.9,0.4,5.9,0.3,9.1-0.7c0.1,0,0.2,0,0.3,0.1
					c0.1,0.1,0,0.2-0.1,0.3c-4.1,3.5-9.8,4.5-15.3,4.5c4.7-5.5,3.1-16.6-4.4-16.6c-5.3,0-7.8,8.3-3.6,12.8c0.1,0.1,0.1,0.2,0,0.3
					c-0.1,0.1-0.2,0.1-0.3,0.1c-4.8-1.7-9.9-5.8-9.9-11c0-5,4.8-9.4,11.8-9.1c-8.8-2.5-18.1,0.3-22.9,6.3c-0.1,0.1-0.2,0.1-0.3,0.1
					c-0.1-0.1-0.2-0.2-0.1-0.3c2.8-10.7,12-15.2,23.4-13.7c-9.3-3.8-23.3-0.5-29.4,7.3c-0.1,0.1-0.2,0.1-0.3,0.1s-0.2-0.2-0.1-0.3
					C43.8-140.4,47.3-145.3,53.1-147.3z"/>
			</g>
			<g>
				<path class="st1" d="M135-56.9c0,0.1,0.1,0.2,0.2,0.2c12.9,0.1,24.8,3.3,34,11.5c-8-5.6-22.9-7.5-31.5-3.6
					c-0.1,0-0.2,0.2-0.1,0.3c0,0.1,0.1,0.2,0.3,0.2c10.7-0.3,19.3,3,26,9c-6.9,0.4-12.6,4.7-12.6,9.8c0,0.1,0.1,0.2,0.2,0.2
					c0.1,0,0.2,0,0.3-0.1c1.1-2.5,4.7-3.8,8.6-2.9c4.2,1,7,4.2,6.3,7.2c-0.5,2-2.4,3.4-5,3.8c-0.1,0-0.2,0.1-0.2,0.3
					c0,0.1,0.1,0.2,0.2,0.2c1.1,0.1,2.2,0.1,3.3,0c6.5-0.6,11.5-4.6,11.9-9.2c4.7,0.5,8.9,3.2,10.4,6.8c0,0.1,0.2,0.2,0.3,0.2
					s0.2-0.1,0.2-0.2c0.4-4.8-1.3-7.8-5-10.9c5.4,2.1,11.4,2.2,17.3-0.5c0.1,0,0.2-0.2,0.1-0.3c0-0.1-0.1-0.2-0.2-0.2
					c-4.9-0.2-8.4-1.8-11.7-5.1c18.3,5.1,33.1-6.2,28-23.1c0-0.1-0.1-0.2-0.3-0.2c-0.1,0-0.2,0.1-0.2,0.2
					c-0.9,9.7-7.7,16.1-17.9,17.1c5.4-2.1,11-7,11.6-15.5c0-0.1-0.1-0.2-0.2-0.3c-0.1,0-0.2,0-0.3,0.1c-2.8,6.2-8.3,9.3-14.2,9.8
					c6.3-2.6,10.4-8.6,11.6-16.4c0-0.1-0.1-0.2-0.2-0.3c-0.1,0-0.2,0-0.3,0.1c-3.9,7.6-12.2,12.8-22.4,8.8
					c-10.6-4.1-15.3-16.4-16.3-25c0-0.1-0.1-0.2-0.2-0.2c-0.1,0-0.2,0.1-0.3,0.2c-3.7,15.7,3.6,31.9,16.6,38.8
					c-7.1-2-13.4-6.3-17-13.4c-8.3-1-14-3.9-16.9-9.2c-0.1-0.1-0.2-0.2-0.3-0.1c-0.1,0-0.2,0.1-0.2,0.3c0.2,2.1,0.9,6.3,4.1,8.3
					c-7,0-12.5,0.9-17.8,3C135.1-57.2,135-57,135-56.9z M164.5-110.4c-0.1,0.1-0.2,0.1-0.3,0s-0.1-0.2,0-0.3
					c1.6-2.8,0.1-6.8-3.1-6.8c-5.7,0-8.5,10.8-7.6,20.6c2.2-5.8,4-8.1,7.3-10.8c0.1-0.1,0.2-0.1,0.3,0s0.1,0.2,0.1,0.3
					c-4.9,9.1-5.9,16.1-5.9,24.1c1.5-6,3.2-9.3,8.1-14.4c0.1-0.1,0.2-0.1,0.3,0s0.1,0.2,0.1,0.3c-5.3,11.6-4.9,24.4-0.9,34.3
					c0,0.1,0,0.2-0.1,0.3s-0.2,0.1-0.3,0c-5.2-2.6-8.3-4.2-12.8-10.4c1.4-7.4,0.2-11-3.2-17.2c3.9,9.9,1.8,23.9-8.2,29.6
					c-0.1,0.1-0.2,0-0.3-0.1s-0.1-0.2,0-0.3c3.8-4,6.5-10.6,4.2-17.9c1.5,10.4-7.6,19.1-17.8,19.1c-9.6,0-16.2-7.5-15.6-14.9
					c0.5-7.4,5.4-11,9.7-12.5c0.1,0,0.2,0,0.3,0.1c0.1,0.1,0,0.2,0,0.3c-5.6,5.7-6.4,16.5,3.6,19.8c-5.9-5.1-3.7-16.8,5.7-17.7
					c0.1,0,0.2,0.1,0.3,0.2c0,0.1,0,0.2-0.1,0.3c-2,1.3-3.7,3.8-3.7,6.6c0,4.7,3.4,6.5,5.7,6.5c3.4,0,6.3-3.3,6.3-8.2
					c0-5.8-5.3-10.7-12-11.4c-6.6-0.7-12.8,2.2-15.8,6.5c-0.1,0.1-0.2,0.1-0.3,0.1c-0.1-0.1-0.2-0.2-0.1-0.3
					c3-11.7,16.8-16.9,26.9-9.5c-6.6-7.5-17-7.6-25.7,0.1c-0.1,0.1-0.2,0.1-0.3,0c-0.1-0.1-0.1-0.2-0.1-0.3
					c2.7-5.4,9.3-11.8,18.6-10.9c8.6,0.9,13.5,9,14.5,15.7c0.6-8.5-1.4-14.5-8.8-20.1c-0.1-0.1-0.1-0.2-0.1-0.3
					c0.1-0.1,0.2-0.2,0.3-0.1c6.8,2,12.2,5.4,15,12.5c0-6.2-2.1-12.4-7.5-16.5c-0.1-0.1-0.1-0.2-0.1-0.3s0.2-0.2,0.3-0.1
					c3.5,1,6.2,2.5,8.1,5.2c1.3-11.1,6.5-17.7,12.5-17.7c4.1,0,7.2,3,7.2,7.9C169.3-116.6,167.8-112.6,164.5-110.4z M263.7-18.8
					c-3.2,3.9-9.5,5.4-16.4,4c0.5,4.3-0.3,8.8-1.6,11.5c-0.1,0.1-0.2,0.2-0.3,0.1c-0.1,0-0.2-0.1-0.2-0.3
					c0.4-8.8-4.6-15.8-13.4-18.9c6.9,4.8,8.9,14.2,5.6,19.1c-0.1,0.1-0.2,0.1-0.3,0.1s-0.2-0.2-0.2-0.3c0.4-2.1-0.6-4.7-2.7-6.7
					c-2.9-2.8-6.8-3.5-8.8-1.4c-2,2-1.2,5.9,1.7,8.8c1.1,1,2.3,1.8,3.4,2.2c0.1,0,0.2,0.2,0.2,0.3s-0.1,0.2-0.2,0.2
					C224.1,0.5,219.7-3.4,217-8c-2.8-4.7-7.6-8.4-13.2-7.7c-0.1,0-0.2-0.1-0.3-0.2c0-0.1,0-0.2,0.1-0.3c2.8-1.7,5.9-2.4,9.9-1.1
					c-5.8-4.9-14-7.7-21.8-5.2c-0.1,0-0.2,0-0.3-0.1s-0.1-0.2,0-0.3c5.9-6.6,17.7-6.7,25.1-1.4c-3-4.3-7.1-7.5-14.3-8.5
					c-0.1,0-0.2-0.1-0.2-0.2c0-0.1,0.1-0.2,0.2-0.3c8.3-3.1,16.6,0,23.4,8.2c-3-6.4-7.9-11.5-14.8-14c-0.1,0-0.2-0.2-0.2-0.3
					s0.1-0.2,0.2-0.2c3.9-0.1,7.5,0.9,12.3,3.6c-3.5-5.7-2.7-15.6,2.4-22.3c0.1-0.1,0.2-0.1,0.3-0.1s0.2,0.2,0.1,0.3
					c-1.2,7.2,1.3,15.3,5.6,19.6c-2.2-7.6,0-14.6,5.9-19.6c0.1-0.1,0.2-0.1,0.3,0c0.1,0,0.1,0.1,0.2,0.2c1.2,9.4,11.8,19,20.6,19.8
					c0.1,0,0.2,0.1,0.2,0.2c0,0.1-0.1,0.2-0.2,0.3c-4.3,1-8.7,0.5-12.4-1c2.7,2.9,5.9,5.1,9.6,6.2c0.1,0,0.2,0.2,0.2,0.3
					c0,0.1-0.1,0.2-0.2,0.2c-4.5,0.3-8.9-1-12.7-3.5c4.4,6.6,11,11.5,19.4,13.5c0.1,0,0.2,0.1,0.2,0.3c0,0.1-0.1,0.2-0.2,0.2
					c-11.9,1.3-21.7-3.3-28.2-11.9c1.6,4.9,6.4,9.8,12.9,12.6c5.8,2.5,11.8,2.9,16.4,1.5c0.1,0,0.2,0,0.3,0.1
					C263.8-19,263.8-18.9,263.7-18.8z M210.8-94.3c4.8,10.5,4.5,18.7,0.6,29.1c0,0.1-0.2,0.2-0.3,0.2s-0.2-0.1-0.2-0.3
					c0.6-12.6-2.8-21.7-10.3-27.8c8.2,9.9,4.4,29.6-8.8,29.6c-9.6,0-17.5-8-19.5-17.5c0-0.1,0-0.2,0.2-0.3c0.1,0,0.2,0,0.3,0.1
					c2.8,4.8,7.4,7.9,12.5,7.9c8.1,0,10.5-6.5,10.5-11c0-6.2-4.9-11.3-8.7-11.3c-3.4,0-5,2.8-5,4.9c0,3.9,3,7.2,6.4,8.2
					c0.1,0,0.2,0.2,0.2,0.3s-0.1,0.2-0.2,0.2c-4.1,0-7.6-1.9-9.6-5.6c-0.3,2.9-0.3,4.7,0.6,7.7c0,0.1,0,0.2-0.1,0.3s-0.2,0-0.3-0.1
					c-7.4-9.4-3.8-25.6,2-32.4c-5.5,4-10.4,12.6-10.3,24.4c0,0.1-0.1,0.2-0.2,0.2c-0.1,0-0.2,0-0.3-0.2c-4.1-10.3-1.9-29.2,9.3-39.9
					c-2.9-0.4-5.9-0.3-9.1,0.7c-0.1,0-0.2,0-0.3-0.1s0-0.2,0.1-0.3c4.1-3.5,9.8-4.5,15.3-4.5c-4.7,5.5-3.1,16.6,4.4,16.6
					c5.3,0,7.8-8.3,3.6-12.8c-0.1-0.1-0.1-0.2,0-0.3c0.1-0.1,0.2-0.1,0.3-0.1c4.8,1.7,9.9,5.8,9.9,11c0,5-4.8,9.4-11.8,9.1
					c8.8,2.5,18.1-0.3,22.9-6.3c0.1-0.1,0.2-0.1,0.3-0.1c0.1,0.1,0.2,0.2,0.1,0.3c-2.8,10.7-12,15.2-23.4,13.7
					c9.3,3.8,23.2,0.5,29.4-7.3c0.1-0.1,0.2-0.1,0.3-0.1c0.1,0.1,0.2,0.2,0.1,0.3C220.1-101.2,216.6-96.3,210.8-94.3z"/>
				<path class="st2" d="M237.2-75c0-0.1-0.1-0.2-0.2-0.2c-12.9-0.1-24.8-3.3-34-11.5c8,5.6,22.9,7.5,31.5,3.6
					c0.1-0.1,0.2-0.2,0.1-0.3c0-0.1-0.1-0.2-0.3-0.2c-10.7,0.3-19.3-3-26-9c6.9-0.4,12.6-4.7,12.6-9.8c0-0.1-0.1-0.2-0.2-0.2
					c-0.1,0-0.2,0-0.3,0.1c-1.1,2.5-4.7,3.8-8.6,2.9c-4.2-1-7-4.2-6.3-7.2c0.5-2,2.4-3.4,5-3.8c0.1,0,0.2-0.1,0.2-0.3
					c0-0.1-0.1-0.2-0.2-0.2c-1.1-0.1-2.2-0.1-3.3,0c-6.5,0.6-11.5,4.6-11.9,9.2c-4.7-0.5-8.9-3.2-10.4-6.8c0-0.1-0.2-0.2-0.3-0.2
					s-0.2,0.1-0.2,0.2c-0.4,4.8,1.3,7.8,5,10.9c-5.4-2.1-11.4-2.2-17.3,0.5c-0.1,0.1-0.2,0.2-0.1,0.3c0,0.1,0.1,0.2,0.2,0.2
					c4.9,0.2,8.4,1.8,11.7,5.1c-18.3-5.1-33.1,6.2-28,23.1c0,0.1,0.1,0.2,0.3,0.2c0.1,0,0.2-0.1,0.2-0.2c0.9-9.7,7.7-16.1,17.9-17.1
					c-5.4,2.1-11,7-11.6,15.5c0,0.1,0.1,0.2,0.2,0.3c0.1,0,0.2,0,0.3-0.1c2.8-6.2,8.3-9.3,14.2-9.8c-6.3,2.6-10.4,8.6-11.6,16.4
					c0,0.1,0.1,0.2,0.2,0.3c0.1,0,0.2,0,0.3-0.1c3.9-7.6,12.2-12.8,22.4-8.8c10.6,4.1,15.3,16.4,16.3,25c0,0.1,0.1,0.2,0.2,0.2
					c0.1,0,0.2-0.1,0.3-0.2c3.7-15.7-3.6-31.9-16.6-38.8c7.1,2,13.4,6.3,17,13.4c8.3,1,14,3.9,16.9,9.2c0.1,0.1,0.2,0.2,0.3,0.1
					c0.1,0,0.2-0.1,0.2-0.3c-0.2-2.1-0.9-6.3-4.1-8.3c7,0,12.5-0.9,17.8-3C237.2-74.8,237.2-74.9,237.2-75z M207.7-21.6
					c0.1-0.1,0.2-0.1,0.3,0s0.1,0.2,0,0.3c-1.6,2.8-0.1,6.8,3.1,6.8c5.7,0,8.5-10.8,7.6-20.6c-2.2,5.8-4,8.1-7.3,10.8
					c-0.1,0.1-0.2,0.1-0.3,0s-0.1-0.2-0.1-0.3c4.9-9.1,5.9-16.1,5.9-24.1c-1.5,6-3.2,9.3-8.1,14.4c-0.1,0.1-0.2,0.1-0.3,0
					s-0.1-0.2-0.1-0.3c5.3-11.6,4.9-24.4,0.9-34.3c0-0.1,0-0.2,0.1-0.3s0.2-0.1,0.3,0c5.2,2.6,8.3,4.2,12.8,10.4
					c-1.4,7.4-0.2,11,3.2,17.2c-3.9-9.9-1.8-23.9,8.2-29.6c0.1-0.1,0.2,0,0.3,0.1s0.1,0.2,0,0.3c-3.8,4-6.5,10.6-4.2,17.9
					c-1.5-10.4,7.6-19.1,17.8-19.1c9.6,0,16.2,7.5,15.6,14.9c-0.5,7.4-5.4,11-9.7,12.5c-0.1,0-0.2,0-0.3-0.1s-0.1-0.2,0-0.3
					c5.6-5.7,6.4-16.5-3.6-19.8c5.9,5.1,3.7,16.8-5.7,17.7c-0.1,0-0.2-0.1-0.3-0.2c0-0.1,0-0.2,0.1-0.3c2-1.3,3.7-3.8,3.7-6.6
					c0-4.7-3.4-6.5-5.7-6.5c-3.4,0-6.3,3.3-6.3,8.2c0,5.8,5.3,10.7,12,11.4c6.6,0.7,12.8-2.2,15.7-6.5c0.1-0.1,0.2-0.1,0.3-0.1
					c0.1,0.1,0.2,0.2,0.1,0.3c-3,11.7-16.8,16.9-26.9,9.5c6.6,7.5,17,7.6,25.7-0.1c0.1-0.1,0.2-0.1,0.3,0c0.1,0.1,0.1,0.2,0.1,0.3
					c-2.7,5.4-9.3,11.8-18.6,10.9c-8.6-0.9-13.5-9-14.5-15.7c-0.6,8.5,1.4,14.5,8.8,20.1c0.1,0.1,0.1,0.2,0.1,0.3s-0.2,0.2-0.3,0.1
					c-6.8-2-12.2-5.4-15-12.5c0,6.2,2.1,12.4,7.5,16.5c0.1,0.1,0.1,0.2,0.1,0.3c-0.1,0.1-0.2,0.2-0.3,0.1c-3.5-1-6.2-2.5-8.1-5.2
					c-1.3,11.1-6.5,17.7-12.5,17.7c-4.1,0-7.2-3-7.2-7.9C202.9-15.4,204.4-19.4,207.7-21.6z M108.5-113.2c3.2-3.9,9.5-5.4,16.4-4
					c-0.5-4.3,0.3-8.8,1.6-11.5c0.1-0.1,0.2-0.2,0.3-0.1c0.1,0,0.2,0.1,0.2,0.3c-0.4,8.8,4.6,15.8,13.4,18.9
					c-6.9-4.8-8.9-14.2-5.6-19.1c0.1-0.1,0.2-0.1,0.3-0.1s0.2,0.2,0.2,0.3c-0.4,2.1,0.6,4.7,2.7,6.7c2.9,2.8,6.8,3.5,8.8,1.4
					c2-2,1.2-5.9-1.7-8.8c-1.1-1-2.3-1.8-3.4-2.2c-0.1,0-0.2-0.2-0.2-0.3c0-0.1,0.1-0.2,0.2-0.2c6.4-0.6,10.8,3.3,13.5,7.9
					c2.8,4.7,7.6,8.4,13.2,7.7c0.1,0,0.2,0.1,0.3,0.2c0,0.1,0,0.2-0.1,0.3c-2.8,1.7-5.9,2.4-9.9,1.1c5.8,4.9,14,7.7,21.8,5.2
					c0.1,0,0.2,0,0.3,0.1s0.1,0.2,0,0.3c-5.9,6.6-17.7,6.7-25.1,1.4c3,4.3,7.1,7.5,14.3,8.5c0.1,0,0.2,0.1,0.2,0.2
					c0,0.1-0.1,0.2-0.2,0.3c-8.3,3.1-16.6,0-23.4-8.2c3,6.4,7.9,11.5,14.8,14c0.1,0,0.2,0.2,0.2,0.3s-0.1,0.2-0.2,0.2
					c-3.9,0.1-7.5-0.9-12.3-3.6c3.5,5.7,2.7,15.6-2.4,22.3c-0.1,0.1-0.2,0.1-0.3,0.1s-0.2-0.2-0.1-0.3c1.2-7.2-1.3-15.3-5.6-19.6
					c2.2,7.6,0,14.6-5.9,19.6c-0.1,0.1-0.2,0.1-0.3,0c-0.1,0-0.1-0.1-0.2-0.2c-1.2-9.4-11.8-19-20.6-19.8c-0.1,0-0.2-0.1-0.2-0.2
					c0-0.1,0.1-0.2,0.2-0.3c4.3-1,8.7-0.5,12.4,1c-2.7-2.9-5.9-5.1-9.6-6.2c-0.1,0-0.2-0.2-0.2-0.3s0.1-0.2,0.2-0.2
					c4.5-0.3,8.9,1,12.7,3.5c-4.4-6.6-11-11.5-19.4-13.5c-0.1,0-0.2-0.1-0.2-0.3c0-0.1,0.1-0.2,0.2-0.2c11.9-1.3,21.7,3.3,28.2,11.9
					c-1.6-4.9-6.4-9.8-12.9-12.6c-5.8-2.5-11.8-2.9-16.4-1.5c-0.1,0-0.2,0-0.3-0.1C108.4-113,108.4-113.1,108.5-113.2z M161.4-37.6
					c-4.8-10.5-4.5-18.7-0.6-29.1c0-0.1,0.2-0.2,0.3-0.2s0.2,0.1,0.2,0.3c-0.6,12.6,2.8,21.7,10.3,27.8c-8.2-9.9-4.4-29.6,8.8-29.6
					c9.6,0,17.5,8,19.5,17.5c0,0.1,0,0.2-0.2,0.3c-0.1,0-0.2,0-0.3-0.1c-2.8-4.8-7.4-7.9-12.5-7.9c-8.1,0-10.5,6.5-10.5,11
					c0,6.2,4.9,11.3,8.7,11.3c3.4,0,5-2.8,5-4.9c0-3.9-3-7.2-6.4-8.2c-0.1,0-0.2-0.2-0.2-0.3s0.1-0.2,0.2-0.2c4.1,0,7.6,1.9,9.6,5.6
					c0.3-2.9,0.3-4.7-0.6-7.7c0-0.1,0-0.2,0.1-0.3s0.2,0,0.3,0.1c7.4,9.4,3.8,25.6-2,32.4c5.5-4,10.4-12.6,10.3-24.4
					c0-0.1,0.1-0.2,0.2-0.2c0.1,0,0.2,0,0.3,0.2c4.1,10.3,1.9,29.2-9.3,39.9c2.9,0.4,5.9,0.3,9.1-0.7c0.1,0,0.2,0,0.3,0.1
					s0,0.2-0.1,0.3c-4.1,3.5-9.8,4.5-15.3,4.5c4.7-5.5,3.1-16.6-4.4-16.6c-5.3,0-7.8,8.3-3.6,12.8c0.1,0.1,0.1,0.2,0,0.3
					s-0.2,0.1-0.3,0.1c-4.8-1.7-9.9-5.8-9.9-11c0-5,4.8-9.4,11.8-9.1c-8.8-2.5-18.1,0.3-22.9,6.3c-0.1,0.1-0.2,0.1-0.3,0.1
					c-0.1-0.1-0.2-0.2-0.1-0.3c2.8-10.7,12-15.2,23.4-13.7c-9.3-3.8-23.2-0.5-29.4,7.3c-0.1,0.1-0.2,0.1-0.3,0.1s-0.2-0.2-0.1-0.3
					C152.2-30.7,155.7-35.7,161.4-37.6z"/>
			</g>
			<g>
				<path class="st1" d="M26.7-56.9c0,0.1,0.1,0.2,0.2,0.2c12.9,0.1,24.8,3.3,34,11.5c-8-5.6-22.9-7.5-31.5-3.6
					c-0.1,0-0.2,0.2-0.1,0.3c0,0.1,0.1,0.2,0.3,0.2c10.7-0.3,19.3,3,26,9C48.7-38.9,43-34.6,43-29.5c0,0.1,0.1,0.2,0.2,0.2
					c0.1,0,0.2,0,0.3-0.1c1.1-2.5,4.7-3.8,8.6-2.9c4.2,1,7,4.2,6.3,7.2c-0.5,2-2.4,3.4-5,3.8c-0.1,0-0.2,0.1-0.2,0.3
					c0,0.1,0.1,0.2,0.2,0.2c1.1,0.1,2.2,0.1,3.3,0c6.5-0.6,11.5-4.6,11.9-9.2c4.7,0.5,8.9,3.2,10.4,6.8c0,0.1,0.2,0.2,0.3,0.2
					c0.1,0,0.2-0.1,0.2-0.2c0.4-4.8-1.3-7.8-5-10.9c5.4,2.1,11.4,2.2,17.3-0.5c0.1,0,0.2-0.2,0.1-0.3c0-0.1-0.1-0.2-0.2-0.2
					c-4.9-0.2-8.4-1.8-11.7-5.1c18.3,5.1,33.1-6.2,28-23.1c0-0.1-0.1-0.2-0.3-0.2c-0.1,0-0.2,0.1-0.2,0.2
					c-0.9,9.7-7.7,16.1-17.9,17.1c5.4-2.1,11-7,11.6-15.5c0-0.1-0.1-0.2-0.2-0.3c-0.1,0-0.2,0-0.3,0.1c-2.8,6.2-8.3,9.3-14.2,9.8
					c6.3-2.6,10.4-8.6,11.6-16.4c0-0.1-0.1-0.2-0.2-0.3c-0.1,0-0.2,0-0.3,0.1c-3.9,7.6-12.2,12.8-22.4,8.8
					c-10.6-4.1-15.3-16.4-16.3-25c0-0.1-0.1-0.2-0.2-0.2c-0.1,0-0.2,0.1-0.3,0.2C54.7-69.2,62-53,75-46.1c-7.1-2-13.4-6.3-17-13.4
					c-8.3-1-14-3.9-16.9-9.2c-0.1-0.1-0.2-0.2-0.3-0.1c-0.1,0-0.2,0.1-0.2,0.3c0.2,2.1,0.9,6.3,4.1,8.3c-7,0-12.5,0.9-17.8,3
					C26.7-57.2,26.7-57,26.7-56.9z M56.2-110.4c-0.1,0.1-0.2,0.1-0.3,0s-0.1-0.2,0-0.3c1.6-2.8,0.1-6.8-3.1-6.8
					c-5.7,0-8.5,10.8-7.6,20.6c2.2-5.8,4-8.1,7.3-10.8c0.1-0.1,0.2-0.1,0.3,0s0.1,0.2,0.1,0.3C48-98.3,47-91.3,47-83.3
					c1.5-6,3.2-9.3,8.1-14.4c0.1-0.1,0.2-0.1,0.3,0s0.1,0.2,0.1,0.3c-5.3,11.6-4.9,24.4-0.9,34.3c0,0.1,0,0.2-0.1,0.3
					s-0.2,0.1-0.3,0C49-65.4,45.9-67,41.4-73.2c1.4-7.4,0.2-11-3.2-17.2c3.9,9.9,1.8,23.9-8.2,29.6c-0.1,0.1-0.2,0-0.3-0.1
					c-0.1-0.1-0.1-0.2,0-0.3c3.8-4,6.5-10.6,4.2-17.9C35.4-68.7,26.3-60,16.1-60C6.5-60-0.1-67.5,0.5-74.9c0.5-7.4,5.4-11,9.7-12.5
					c0.1,0,0.2,0,0.3,0.1s0,0.2,0,0.3c-5.6,5.7-6.4,16.5,3.6,19.8c-5.9-5.1-3.7-16.8,5.7-17.7c0.1,0,0.2,0.1,0.3,0.2
					c0,0.1,0,0.2-0.1,0.3c-2,1.3-3.7,3.8-3.7,6.6c0,4.7,3.4,6.5,5.7,6.5c3.4,0,6.3-3.3,6.3-8.2c0-5.8-5.3-10.7-12-11.4
					c-6.6-0.7-12.8,2.2-15.7,6.5c-0.1,0.1-0.2,0.1-0.3,0.1C0-84.6,0-84.7,0-84.8c3-11.7,16.8-16.9,26.9-9.5
					c-6.6-7.5-17-7.6-25.7,0.1c-0.1,0.1-0.2,0.1-0.3,0s-0.1-0.2-0.1-0.3c2.7-5.4,9.3-11.8,18.6-10.9c8.6,0.9,13.5,9,14.5,15.7
					c0.6-8.5-1.4-14.5-8.8-20.1c-0.1-0.1-0.1-0.2-0.1-0.3c0.1-0.1,0.2-0.2,0.3-0.1c6.8,2,12.2,5.4,15,12.5c0-6.2-2.1-12.4-7.5-16.5
					c-0.1-0.1-0.1-0.2-0.1-0.3c0.1-0.1,0.2-0.2,0.3-0.1c3.5,1,6.2,2.5,8.1,5.2c1.3-11.1,6.5-17.7,12.5-17.7c4.1,0,7.2,3,7.2,7.9
					C61-116.6,59.5-112.6,56.2-110.4z M155.4-18.8c-3.2,3.9-9.5,5.4-16.4,4c0.5,4.3-0.3,8.8-1.6,11.5c-0.1,0.1-0.2,0.2-0.3,0.1
					c-0.1,0-0.2-0.1-0.2-0.3c0.4-8.8-4.6-15.8-13.4-18.9c6.9,4.8,8.9,14.2,5.6,19.1c-0.1,0.1-0.2,0.1-0.3,0.1s-0.2-0.2-0.2-0.3
					c0.4-2.1-0.6-4.7-2.7-6.7c-2.9-2.8-6.8-3.5-8.8-1.4c-2,2-1.2,5.9,1.7,8.8c1.1,1,2.3,1.8,3.4,2.2c0.1,0,0.2,0.2,0.2,0.3
					s-0.1,0.2-0.2,0.2c-6.4,0.6-10.8-3.3-13.5-7.9c-2.8-4.7-7.6-8.4-13.2-7.7c-0.1,0-0.2-0.1-0.3-0.2c0-0.1,0-0.2,0.1-0.3
					c2.8-1.7,5.9-2.4,9.9-1.1c-5.8-4.9-14-7.7-21.8-5.2c-0.1,0-0.2,0-0.3-0.1c-0.1-0.1-0.1-0.2,0-0.3c5.9-6.6,17.7-6.7,25.1-1.4
					c-3-4.3-7.1-7.5-14.3-8.5c-0.1,0-0.2-0.1-0.2-0.2c0-0.1,0.1-0.2,0.2-0.3c8.3-3.1,16.6,0,23.4,8.2c-3-6.4-7.9-11.5-14.8-14
					c-0.1,0-0.2-0.2-0.2-0.3s0.1-0.2,0.2-0.2c3.9-0.1,7.5,0.9,12.3,3.6c-3.5-5.7-2.7-15.6,2.4-22.3c0.1-0.1,0.2-0.1,0.3-0.1
					c0.1,0,0.2,0.2,0.1,0.3c-1.2,7.2,1.3,15.3,5.6,19.6c-2.2-7.6,0-14.6,5.9-19.6c0.1-0.1,0.2-0.1,0.3,0c0.1,0,0.1,0.1,0.2,0.2
					c1.2,9.4,11.8,19,20.6,19.8c0.1,0,0.2,0.1,0.2,0.2c0,0.1-0.1,0.2-0.2,0.3c-4.3,1-8.7,0.5-12.4-1c2.7,2.9,5.9,5.1,9.6,6.2
					c0.1,0,0.2,0.2,0.2,0.3c0,0.1-0.1,0.2-0.2,0.2c-4.5,0.3-8.9-1-12.7-3.5c4.4,6.6,11,11.5,19.4,13.5c0.1,0,0.2,0.1,0.2,0.3
					c0,0.1-0.1,0.2-0.2,0.2c-11.9,1.3-21.7-3.3-28.2-11.9c1.6,4.9,6.4,9.8,12.9,12.6c5.8,2.5,11.8,2.9,16.4,1.5c0.1,0,0.2,0,0.3,0.1
					C155.5-19,155.5-18.9,155.4-18.8z M102.5-94.3c4.8,10.5,4.5,18.7,0.6,29.1c0,0.1-0.2,0.2-0.3,0.2c-0.1,0-0.2-0.1-0.2-0.3
					c0.6-12.6-2.8-21.7-10.3-27.8c8.2,9.9,4.4,29.6-8.8,29.6c-9.6,0-17.5-8-19.5-17.5c0-0.1,0-0.2,0.2-0.3c0.1,0,0.2,0,0.3,0.1
					c2.8,4.8,7.4,7.9,12.5,7.9c8.1,0,10.5-6.5,10.5-11c0-6.2-4.9-11.3-8.7-11.3c-3.4,0-5,2.8-5,4.9c0,3.9,3,7.2,6.4,8.2
					c0.1,0,0.2,0.2,0.2,0.3S80.3-82,80.2-82c-4.1,0-7.6-1.9-9.6-5.6c-0.3,2.9-0.3,4.7,0.6,7.7c0,0.1,0,0.2-0.1,0.3s-0.2,0-0.3-0.1
					c-7.4-9.4-3.8-25.6,2-32.4c-5.5,4-10.4,12.6-10.3,24.4c0,0.1-0.1,0.2-0.2,0.2c-0.1,0-0.2,0-0.3-0.2c-4.1-10.3-1.9-29.2,9.3-39.9
					c-2.9-0.4-5.9-0.3-9.1,0.7c-0.1,0-0.2,0-0.3-0.1s0-0.2,0.1-0.3c4.1-3.5,9.8-4.5,15.3-4.5c-4.7,5.5-3.1,16.6,4.4,16.6
					c5.3,0,7.8-8.3,3.6-12.8c-0.1-0.1-0.1-0.2,0-0.3c0.1-0.1,0.2-0.1,0.3-0.1c4.8,1.7,9.9,5.8,9.9,11c0,5-4.8,9.4-11.8,9.1
					c8.8,2.5,18.1-0.3,22.9-6.3c0.1-0.1,0.2-0.1,0.3-0.1c0.1,0.1,0.2,0.2,0.1,0.3c-2.8,10.7-12,15.2-23.4,13.7
					c9.3,3.8,23.2,0.5,29.4-7.3c0.1-0.1,0.2-0.1,0.3-0.1c0.1,0.1,0.2,0.2,0.1,0.3C111.8-101.2,108.3-96.3,102.5-94.3z"/>
				<path class="st2" d="M128.9-75c0-0.1-0.1-0.2-0.2-0.2c-12.9-0.1-24.8-3.3-34-11.5c8,5.6,22.9,7.5,31.5,3.6
					c0.1-0.1,0.2-0.2,0.1-0.3c0-0.1-0.1-0.2-0.3-0.2c-10.7,0.3-19.3-3-26-9c6.9-0.4,12.6-4.7,12.6-9.8c0-0.1-0.1-0.2-0.2-0.2
					s-0.2,0-0.3,0.1c-1.1,2.5-4.7,3.8-8.6,2.9c-4.2-1-7-4.2-6.3-7.2c0.5-2,2.4-3.4,5-3.8c0.1,0,0.2-0.1,0.2-0.3
					c0-0.1-0.1-0.2-0.2-0.2c-1.1-0.1-2.2-0.1-3.3,0c-6.5,0.6-11.5,4.6-11.9,9.2c-4.7-0.5-8.9-3.2-10.4-6.8c0-0.1-0.2-0.2-0.3-0.2
					c-0.1,0-0.2,0.1-0.2,0.2c-0.4,4.8,1.3,7.8,5,10.9c-5.4-2.1-11.4-2.2-17.3,0.5c-0.1,0.1-0.2,0.2-0.1,0.3c0,0.1,0.1,0.2,0.2,0.2
					c4.9,0.2,8.4,1.8,11.7,5.1c-18.3-5.1-33.1,6.2-28,23.1c0,0.1,0.1,0.2,0.3,0.2c0.1,0,0.2-0.1,0.2-0.2C49-78.3,55.8-84.7,66-85.7
					c-5.4,2.1-11,7-11.6,15.5c0,0.1,0.1,0.2,0.2,0.3c0.1,0,0.2,0,0.3-0.1c2.8-6.2,8.3-9.3,14.2-9.8c-6.3,2.6-10.4,8.6-11.6,16.4
					c0,0.1,0.1,0.2,0.2,0.3c0.1,0,0.2,0,0.3-0.1C61.9-70.8,70.2-76,80.4-72C91-67.9,95.7-55.6,96.7-47c0,0.1,0.1,0.2,0.2,0.2
					s0.2-0.1,0.3-0.2c3.7-15.7-3.6-31.9-16.6-38.8c7.1,2,13.4,6.3,17,13.4c8.3,1,14,3.9,16.9,9.2c0.1,0.1,0.2,0.2,0.3,0.1
					c0.1,0,0.2-0.1,0.2-0.3c-0.2-2.1-0.9-6.3-4.1-8.3c7,0,12.5-0.9,17.8-3C128.8-74.8,128.9-74.9,128.9-75z M99.4-21.6
					c0.1-0.1,0.2-0.1,0.3,0c0.1,0.1,0.1,0.2,0,0.3c-1.6,2.8-0.1,6.8,3.1,6.8c5.7,0,8.5-10.8,7.6-20.6c-2.2,5.8-4,8.1-7.3,10.8
					c-0.1,0.1-0.2,0.1-0.3,0c-0.1-0.1-0.1-0.2-0.1-0.3c4.9-9.1,5.9-16.1,5.9-24.1c-1.5,6-3.2,9.3-8.1,14.4c-0.1,0.1-0.2,0.1-0.3,0
					c-0.1-0.1-0.1-0.2-0.1-0.3c5.3-11.6,4.9-24.4,0.9-34.3c0-0.1,0-0.2,0.1-0.3s0.2-0.1,0.3,0c5.2,2.6,8.3,4.2,12.8,10.4
					c-1.4,7.4-0.2,11,3.2,17.2c-3.9-9.9-1.8-23.9,8.2-29.6c0.1-0.1,0.2,0,0.3,0.1c0.1,0.1,0.1,0.2,0,0.3c-3.8,4-6.5,10.6-4.2,17.9
					c-1.5-10.4,7.6-19.1,17.8-19.1c9.6,0,16.2,7.5,15.6,14.9c-0.5,7.4-5.4,11-9.7,12.5c-0.1,0-0.2,0-0.3-0.1s-0.1-0.2,0-0.3
					c5.6-5.7,6.4-16.5-3.6-19.8c5.9,5.1,3.7,16.8-5.7,17.7c-0.1,0-0.2-0.1-0.3-0.2c0-0.1,0-0.2,0.1-0.3c2-1.3,3.7-3.8,3.7-6.6
					c0-4.7-3.4-6.5-5.7-6.5c-3.4,0-6.3,3.3-6.3,8.2c0,5.8,5.3,10.7,12,11.4c6.6,0.7,12.8-2.2,15.8-6.5c0.1-0.1,0.2-0.1,0.3-0.1
					c0.1,0.1,0.2,0.2,0.1,0.3c-3,11.7-16.8,16.9-26.9,9.5c6.6,7.5,17,7.6,25.7-0.1c0.1-0.1,0.2-0.1,0.3,0s0.1,0.2,0.1,0.3
					c-2.7,5.4-9.3,11.8-18.6,10.9c-8.6-0.9-13.5-9-14.5-15.7C121-34,123-28,130.4-22.4c0.1,0.1,0.1,0.2,0.1,0.3s-0.2,0.2-0.3,0.1
					c-6.8-2-12.2-5.4-15-12.5c0,6.2,2.1,12.4,7.5,16.5c0.1,0.1,0.1,0.2,0.1,0.3c-0.1,0.1-0.2,0.2-0.3,0.1c-3.5-1-6.2-2.5-8.1-5.2
					c-1.3,11.1-6.5,17.7-12.5,17.7c-4.1,0-7.2-3-7.2-7.9C94.6-15.4,96.1-19.4,99.4-21.6z M0.2-113.2c3.2-3.9,9.5-5.4,16.4-4
					c-0.5-4.3,0.3-8.8,1.6-11.5c0.1-0.1,0.2-0.2,0.3-0.1c0.1,0,0.2,0.1,0.2,0.3c-0.4,8.8,4.6,15.8,13.4,18.9
					c-6.9-4.8-8.9-14.2-5.6-19.1c0.1-0.1,0.2-0.1,0.3-0.1c0.1,0,0.2,0.2,0.2,0.3c-0.4,2.1,0.6,4.7,2.7,6.7c2.9,2.8,6.8,3.5,8.8,1.4
					c2-2,1.2-5.9-1.7-8.8c-1.1-1-2.3-1.8-3.4-2.2c-0.1,0-0.2-0.2-0.2-0.3c0-0.1,0.1-0.2,0.2-0.2c6.4-0.6,10.8,3.3,13.5,7.9
					c2.8,4.7,7.6,8.4,13.2,7.7c0.1,0,0.2,0.1,0.3,0.2c0,0.1,0,0.2-0.1,0.3c-2.8,1.7-5.9,2.4-9.9,1.1c5.8,4.9,14,7.7,21.8,5.2
					c0.1,0,0.2,0,0.3,0.1c0.1,0.1,0.1,0.2,0,0.3c-5.9,6.6-17.7,6.7-25.1,1.4c3,4.3,7.1,7.5,14.3,8.5c0.1,0,0.2,0.1,0.2,0.2
					c0,0.1-0.1,0.2-0.2,0.3c-8.3,3.1-16.6,0-23.4-8.2c3,6.4,7.9,11.5,14.8,14c0.1,0,0.2,0.2,0.2,0.3s-0.1,0.2-0.2,0.2
					c-3.9,0.1-7.5-0.9-12.3-3.6c3.5,5.7,2.7,15.6-2.4,22.3c-0.1,0.1-0.2,0.1-0.3,0.1s-0.2-0.2-0.1-0.3c1.2-7.2-1.3-15.3-5.6-19.6
					c2.2,7.6,0,14.6-5.9,19.6c-0.1,0.1-0.2,0.1-0.3,0c-0.1,0-0.1-0.1-0.2-0.2c-1.2-9.4-11.8-19-20.6-19.8c-0.1,0-0.2-0.1-0.2-0.2
					c0-0.1,0.1-0.2,0.2-0.3c4.3-1,8.7-0.5,12.4,1c-2.7-2.9-5.9-5.1-9.6-6.2c-0.1,0-0.2-0.2-0.2-0.3s0.1-0.2,0.2-0.2
					c4.5-0.3,8.9,1,12.7,3.5c-4.4-6.6-11-11.5-19.4-13.5c-0.1,0-0.2-0.1-0.2-0.3c0-0.1,0.1-0.2,0.2-0.2c11.9-1.3,21.7,3.3,28.2,11.9
					c-1.6-4.9-6.4-9.8-12.9-12.6c-5.8-2.5-11.8-2.9-16.4-1.5c-0.1,0-0.2,0-0.3-0.1C0.1-113,0.1-113.1,0.2-113.2z M53.1-37.6
					c-4.8-10.5-4.5-18.7-0.6-29.1c0-0.1,0.2-0.2,0.3-0.2s0.2,0.1,0.2,0.3C52.4-54,55.8-44.9,63.3-38.8c-8.2-9.9-4.4-29.6,8.8-29.6
					c9.6,0,17.5,8,19.5,17.5c0,0.1,0,0.2-0.2,0.3c-0.1,0-0.2,0-0.3-0.1c-2.8-4.8-7.4-7.9-12.5-7.9c-8.1,0-10.5,6.5-10.5,11
					c0,6.2,4.9,11.3,8.7,11.3c3.4,0,5-2.8,5-4.9c0-3.9-3-7.2-6.4-8.2c-0.1,0-0.2-0.2-0.2-0.3s0.1-0.2,0.2-0.2c4.1,0,7.6,1.9,9.6,5.6
					c0.3-2.9,0.3-4.7-0.6-7.7c0-0.1,0-0.2,0.1-0.3s0.2,0,0.3,0.1c7.4,9.4,3.8,25.6-2,32.4c5.5-4,10.4-12.6,10.3-24.4
					c0-0.1,0.1-0.2,0.2-0.2s0.2,0,0.3,0.2c4.1,10.3,1.9,29.2-9.3,39.9C87.2-3.9,90.2-4,93.4-5c0.1,0,0.2,0,0.3,0.1
					c0.1,0.1,0,0.2-0.1,0.3c-4.1,3.5-9.8,4.5-15.3,4.5c4.7-5.5,3.1-16.6-4.4-16.6c-5.3,0-7.8,8.3-3.6,12.8c0.1,0.1,0.1,0.2,0,0.3
					S70.1-3.5,70-3.5c-4.8-1.7-9.9-5.8-9.9-11c0-5,4.8-9.4,11.8-9.1c-8.8-2.5-18.1,0.3-22.9,6.3c-0.1,0.1-0.2,0.1-0.3,0.1
					c-0.1-0.1-0.2-0.2-0.1-0.3c2.8-10.7,12-15.2,23.4-13.7c-9.3-3.8-23.3-0.5-29.4,7.3c-0.1,0.1-0.2,0.1-0.3,0.1s-0.2-0.2-0.1-0.3
					C43.8-30.7,47.3-35.7,53.1-37.6z"/>
			</g>
		</g>
	</g>
</pattern>
<g>
	<path class="st3" d="M60.1,149.1l-2.5-8.6c-0.3-1.2-1.2-2.1-2.5-2.4l-14.5-3.8c0,0-0.8,12.7-7,12.7s-7-12.7-7-12.7L12,138.1
		c-1.1,0.4-2,1.2-2.5,2.4l-2.5,8.6c-0.7,2.3,1,4.6,3.3,4.6h23.2h23.2C59.2,153.7,60.7,151.3,60.1,149.1z"/>
	
		<linearGradient id="SVGID_1_" gradientUnits="userSpaceOnUse" x1="26.6003" y1="62.8276" x2="40.6903" y2="62.8276" gradientTransform="matrix(1 0 0 -1 0 200)">
		<stop  offset="0" style="stop-color:#F6D6CC"/>
		<stop  offset="0.5" style="stop-color:#F2DBD4"/>
		<stop  offset="1" style="stop-color:#F7EAE6"/>
	</linearGradient>
	<path class="st4" d="M35.1,129.8c-1,0.4-2,0.4-2.9,0c-1.6-0.6-2.9-1.3-4.1-2.4l-1.5,6.8c0,0,0.8,12.7,7,12.7s7-12.7,7-12.7
		l-1.5-6.8C38.1,128.5,36.7,129.3,35.1,129.8z"/>
	<path class="st5" d="M27.2,130.7l-3.3,3c-1.1,1.1-2.8,1.2-4.2,0.6c-1.4-0.7-3.2-1.4-4.3-1.4c-2.2,0-4.5-2.1-4.3-5.9
		c0.2-3.8-2.2-2.7-2.4-4.4c-0.2-1.5,0.6-4.6,2.5-5.7c1.9-1-0.8-5-0.9-5.5c-0.1-0.5-1.7-4.4,2.6-8.1s5.9-7.1,7.2-9.2
		c1.4-2,9.4-6.8,13.5-4c0,0,5.5-3.7,9.4-0.2s7.8,11.7,9.1,12.4c1.2,0.6,4.6,7.6,3.7,10.8c-0.9,3.2,0.3,4.8,1.5,5.4
		c1.1,0.6,1.6,3.7-1.2,7.3c-2.8,3.7,2.5,5,2.5,5s0.2,2.5-4.1,2.6c-4.4,0.1-7.8,2.4-8.7,2.1c-0.5-0.1-5.7-4.6-5.7-4.6
		s5.9-8.8,6.2-13.4c0.3-4.6,0.1-7.1-3.7-7.1c-3.9-0.1-4.5,1-6.7-2.5s-6.3-3.3-7.2-3.7c-0.5-0.1-1.5-0.4-2.6-0.7
		c-1.5-0.5-2.9,0.1-3.7,1.4c-0.2,0.4-0.6,0.8-0.9,1.2c-2.2,2-1.7,3.4-1,8.3C21,119.1,23.1,125.3,27.2,130.7z"/>
	
		<linearGradient id="SVGID_2_" gradientUnits="userSpaceOnUse" x1="18.3399" y1="79.2283" x2="25.0606" y2="79.2283" gradientTransform="matrix(1 0 0 -1 0 200)">
		<stop  offset="0" style="stop-color:#EEB4A4"/>
		<stop  offset="0.5" style="stop-color:#ECCDC7"/>
		<stop  offset="1" style="stop-color:#ECCDC7"/>
	</linearGradient>
	<path class="st6" d="M22.8,118.3c0,0-4.3-5-4.4-1.3c-0.1,3.7,4.1,10.2,6.1,8.8C26.4,124.3,22.8,118.3,22.8,118.3z"/>
	
		<linearGradient id="SVGID_3_" gradientUnits="userSpaceOnUse" x1="19.7391" y1="81.1098" x2="46.3511" y2="81.1098" gradientTransform="matrix(1 0 0 -1 0 200)">
		<stop  offset="0" style="stop-color:#EEB4A4"/>
		<stop  offset="0.5" style="stop-color:#ECCDC7"/>
		<stop  offset="1" style="stop-color:#ECCDC7"/>
	</linearGradient>
	<path class="st7" d="M46.2,117.3c0.3-4.6,0.1-7.1-3.7-7.1c-3.9-0.1-4.5,1-6.7-2.5s-6.3-3.3-7.2-3.7c-0.5-0.1-1.4-0.2-2.4-0.6
		c-1.5-0.5-3.2,0.1-4.1,1.5c-0.2,0.4-0.5,0.7-0.8,1.1c-2.2,2-1.7,3.4-1,8.3c0.7,4.9,2.8,11.1,6.9,16.5c1.7,1.8,3.9,3.1,6.5,3.7
		c2.5-0.5,4.6-1.8,6.3-3.6C40.2,130.4,45.9,121.8,46.2,117.3z"/>
</g>
<g>
	<path class="st8" d="M142.1,134.1c-1-1.2-10.2-2.9-15.3-4c-1.2,3.6-3.9,6.2-8,6.2c-4.3,0-6.8-2.5-8-6.2c-5.2,1.2-14.3,2.9-15.3,4
		c-1.4,1.7-3.9,10.3-5,16.3c-0.5,2.5,1.4,4.8,3.7,4.8h24.5h24.7c2.4,0,4.2-2.3,3.7-4.8C145.9,144.3,143.4,135.6,142.1,134.1z"/>
	<path class="st9" d="M118.2,128c-2.5,0-4.8-0.6-6.8-1.7l-0.8,3.8c1.4,3.6,3.9,6.1,8,6.1s6.7-2.5,8-6.1l-0.8-3.8
		C123.6,127.5,121,128,118.2,128z"/>
	<path class="st10" d="M103.2,112.2c0,0-2.9-3.7-2.7,0.7c0.1,4.4,3.3,7.6,4.3,7.9S104.6,113.4,103.2,112.2z"/>
	<path class="st10" d="M133.4,112.2c0,0,2.9-3.7,2.7,0.7c-0.1,4.4-3.3,7.6-4.3,7.9C130.7,121,132,113.4,133.4,112.2z"/>
	<path class="st11" d="M132.4,97.9c0-1.5-10.9-3.4-15.7-3.6c0,0-10.5,3.6-11.9,3.9c-1.4,0.4-2.4,11.8-1.9,15.7
		c0.7,6.4,6.8,14.5,15.3,14.5c8,0,14.7-4.9,15.7-16.3C133.1,108.7,132.4,99.1,132.4,97.9z"/>
	<path class="st12" d="M105.2,120.4c0,0-2.8-4.2-2.9-10.2c-0.1-3-2.6-14.2,2.9-18.3s8.8-5.1,13.4-4.9c4.5,0.2,15.4,1.9,15.9,11.5
		s0.6,9.5,0,12.4c-0.6,2.9-2.6,9.5-2.6,9.5s0.5-8.8,0.6-9.8c0.1-1-2-3.6-2.3-4c-0.2-0.5-0.3,3.9,0.9,5c1.1,1.2-6.7-3.3-8-5.9
		c0,0,0.9,2.9,1.6,3.9c0,0-12.9-9.3-14.3-13.2c0,0-6.5,8.7-6.3,10.2C104,108,105.7,118,105.2,120.4z"/>
	<path class="st13" d="M129.3,136.3c-6.9,2.5-14.5,2.5-21.4,0c-1.8-0.7-2.7-2.4-2.2-3.7c0.3-0.8,0.8-1.8,1.1-2.6
		c0.6-1.3,2.2-1.8,3.5-1.3c5.3,1.9,11,1.9,16.3,0c1.4-0.5,2.8,0,3.5,1.3c0.3,0.8,0.8,1.8,1.1,2.6C132,133.8,131.1,135.6,129.3,136.3
		z"/>
</g>
<g>
	<pattern  id="SVGID_4_" xlink:href="#SVGID_5_" patternTransform="matrix(1 0 0 -1 -129.211 -16809.9551)">
	</pattern>
	<path class="st14" d="M241.8,145.4l-2.5-8.1c-0.3-1.1-1.2-2-2.5-2.3l-14.4-3.6c0,0-0.8,12.1-7,12.1c-6.2,0-7-12.1-7-12.1l-14.4,3.6
		c-1.1,0.3-2,1.1-2.5,2.3l-2.5,8.1c-0.7,2.1,1,4.4,3.3,4.4h23.1h23.1C240.8,149.8,242.5,147.6,241.8,145.4z"/>
	<path class="st15" d="M216.9,127.2c-1,0.3-2,0.3-2.9,0c-1.6-0.6-2.9-1.2-4.1-2.3l-1.5,6.4c0,0,0.8,12.1,7,12.1c6.2,0,7-12.1,7-12.1
		l-1.5-6.4C219.9,126,218.5,126.7,216.9,127.2z"/>
	<path class="st5" d="M209.2,128.1l-3.3,2.8c-1.1,1-2.8,1.1-4.2,0.6c-1.4-0.7-3.2-1.4-4.3-1.4c-2.1,0-4.5-2-4.3-5.6
		c0.2-3.6-2.1-2.6-2.4-4.2c-0.2-1.5,0.6-4.4,2.5-5.4c1.9-0.9-0.8-4.7-0.9-5.2s-1.7-4.2,2.6-7.7c4.3-3.5,5.9-6.8,7.2-8.7
		c1.4-1.9,9.4-6.4,13.4-3.8c0,0,5.5-3.5,9.4-0.2c3.8,3.3,7.8,11,9,11.7c1.2,0.6,4.6,7.2,3.7,10.3c-0.9,3,0.3,4.5,1.5,5.1
		c1.1,0.6,1.6,3.5-1.2,6.9c-2.8,3.5,2.5,4.7,2.5,4.7s0.2,2.4-4.1,2.5c-4.4,0.1-7.8,2.3-8.7,2c-0.5-0.1-5.6-4.4-5.6-4.4
		s5.9-8.3,6.2-12.7c0.3-4.4,0.1-6.8-3.7-6.8c-3.8-0.1-4.5,0.9-6.6-2.4s-6.3-3.2-7.2-3.5c-0.5-0.1-1.5-0.3-2.6-0.7
		c-1.5-0.5-2.9,0.1-3.7,1.4c-0.2,0.3-0.6,0.8-0.9,1.1c-2.1,1.9-1.7,3.3-1,7.9C202.8,117.1,205,122.9,209.2,128.1z"/>
	<path class="st10" d="M204.6,116.3c0,0-4.3-4.7-4.4-1.2c-0.1,3.5,4.1,9.7,6.1,8.3C208.4,122,204.6,116.3,204.6,116.3z"/>
	<path class="st11" d="M228.1,115.4c0.3-4.4,0.1-6.8-3.7-6.8c-3.8-0.1-4.5,0.9-6.6-2.4c-2.1-3.3-6.3-3.2-7.2-3.5
		c-0.5-0.1-1.4-0.2-2.4-0.6c-1.5-0.5-3.2,0.1-4.1,1.5c-0.2,0.3-0.5,0.7-0.8,1c-2.1,1.9-1.7,3.3-1,7.9s2.8,10.5,6.9,15.7
		c1.7,1.7,3.8,2.9,6.4,3.5c2.5-0.5,4.6-1.7,6.3-3.4C222,127.8,227.7,119.6,228.1,115.4z"/>
</g>
</svg>
