<?xml version="1.0" encoding="utf-8"?>
<!-- Generator: Adobe Illustrator 22.0.0, SVG Export Plug-In . SVG Version: 6.00 Build 0)  -->
<svg version="1.1" id="Layer_1" xmlns="http://www.w3.org/2000/svg" xmlns:xlink="http://www.w3.org/1999/xlink" x="0px" y="0px"
	 viewBox="0 0 697.4 650" style="enable-background:new 0 0 697.4 650;" xml:space="preserve">
<style type="text/css">
	.Drop_x0020_Shadow{fill:none;}
	.Round_x0020_Corners_x0020_2_x0020_pt{fill:#FFFFFF;stroke:#000000;stroke-miterlimit:10;}
	.Live_x0020_Reflect_x0020_X{fill:none;}
	.Bevel_x0020_Soft{fill:url(#SVGID_1_);}
	.Dusk{fill:#FFFFFF;}
	.Foliage_GS{fill:#FFDD00;}
	.Pompadour_GS{fill-rule:evenodd;clip-rule:evenodd;fill:#44ADE2;}
	.st0{fill:#8B5F3D;}
	.st1{fill:#434B6F;}
	.st2{fill:#452569;}
	.st3{fill:#73439A;}
	.st4{fill:#45489A;}
	.st5{fill:#356330;}
	.st6{fill:#4F833C;}
	.st7{fill:none;stroke:#231F20;stroke-width:0.555;stroke-miterlimit:10;}
</style>
<linearGradient id="SVGID_1_" gradientUnits="userSpaceOnUse" x1="0" y1="0" x2="0.7071" y2="0.7071">
	<stop  offset="0" style="stop-color:#DEDFE3"/>
	<stop  offset="0.1738" style="stop-color:#D8D9DD"/>
	<stop  offset="0.352" style="stop-color:#C9CACD"/>
	<stop  offset="0.5323" style="stop-color:#B4B5B8"/>
	<stop  offset="0.7139" style="stop-color:#989A9C"/>
	<stop  offset="0.8949" style="stop-color:#797C7E"/>
	<stop  offset="1" style="stop-color:#656B6C"/>
</linearGradient>
<path class="st0" d="M287.5,300.4c0,0,1.3,21.9,10.4,34.8c9.1,12.9,19,22.6,22.6,32.5c3.6,9.9,4.3,24.4,2.2,30.7
	c-2.2,6.3-12.2,19.4-12.2,19.4h84.7c0,0-19.5-9.7-20.1-24.2c-0.5-14.5,5.2-38.6,9.5-48.8c4.3-10.2,40.7-46.6,40.7-46.6
	s-19.7,7.4-37.7,19.2c-17.9,11.8-24.2,13.6-27.1,0.7c-2.9-12.9-0.7-66.2-0.7-66.2s-9.1,47.2-14.5,52.5c-5.4,5.4-13.1-2.2-21.3-21.5
	c-8.3-19.4-9.1-20.8-9.1-20.8s-1.3,25.6,13.5,43.2s17.6,17.8,14.2,26c-3.4,8.3-8.3,16.5-19,13.5
	C312.6,341.7,298.8,327.2,287.5,300.4z"/>
<circle class="st1" cx="323.9" cy="249.2" r="39.4"/>
<circle class="st2" cx="284.5" cy="305.3" r="19.2"/>
<ellipse transform="matrix(0.9314 -0.3641 0.3641 0.9314 -90.2911 98.2108)" class="st3" cx="215.3" cy="288.6" rx="19.2" ry="19.2"/>
<circle class="st3" cx="242.7" cy="325.7" r="19.2"/>
<circle class="st3" cx="252" cy="286.2" r="12"/>
<circle class="st4" cx="246.5" cy="256" r="12"/>
<circle class="st2" cx="372.6" cy="226.3" r="12"/>
<ellipse transform="matrix(0.9229 -0.3851 0.3851 0.9229 -82.0449 186.7475)" class="st4" cx="425.2" cy="298.2" rx="12" ry="12"/>
<circle class="st4" cx="383.7" cy="291" r="12"/>
<circle class="st4" cx="467.1" cy="287.2" r="12"/>
<circle class="st3" cx="392.4" cy="183.6" r="12"/>
<circle class="st1" cx="325.3" cy="116.9" r="12"/>
<circle class="st1" cx="256.4" cy="153.5" r="12"/>
<circle class="st4" cx="316.1" cy="165.1" r="12"/>
<circle class="st1" cx="465.1" cy="215.2" r="12"/>
<ellipse transform="matrix(0.2284 -0.9736 0.9736 0.2284 103.6113 562.3565)" class="st2" cx="406.6" cy="215.8" rx="16.5" ry="16.5"/>
<ellipse transform="matrix(0.9269 -0.3754 0.3754 0.9269 -81.2346 121.8438)" class="st3" cx="272.1" cy="269.4" rx="10.2" ry="10.2"/>
<path class="st3" d="M275.7,244.1c0,4.1-3.3,7.4-7.4,7.4s-7.4-3.3-7.4-7.4s3.3-7.4,7.4-7.4S275.7,240,275.7,244.1z"/>
<path class="st1" d="M376.9,268c0,4.1-3.3,7.4-7.4,7.4c-4.1,0-7.4-3.3-7.4-7.4s3.3-7.4,7.4-7.4C373.6,260.6,376.9,263.9,376.9,268z"
	/>
<path class="st1" d="M412,285.7c0,3-2.4,5.5-5.5,5.5c-3,0-5.5-2.4-5.5-5.5s2.4-5.5,5.5-5.5C409.6,280.3,412,282.7,412,285.7z"/>
<path class="st4" d="M406.6,300.7c0,3-2.4,5.5-5.5,5.5c-3,0-5.5-2.4-5.5-5.5c0-3,2.4-5.5,5.5-5.5
	C404.1,295.2,406.6,297.7,406.6,300.7z"/>
<path class="st4" d="M428.5,318.2c0,3-2.4,5.5-5.5,5.5c-3,0-5.5-2.4-5.5-5.5c0-3,2.4-5.5,5.5-5.5
	C426.1,312.7,428.5,315.2,428.5,318.2z"/>
<path class="st4" d="M466.6,307.3c0,3-2.4,5.5-5.5,5.5c-3,0-5.5-2.4-5.5-5.5c0-3,2.4-5.5,5.5-5.5
	C464.1,301.8,466.6,304.2,466.6,307.3z"/>
<path class="st1" d="M430.5,239.7c0,4.1-3.3,7.4-7.4,7.4s-7.4-3.3-7.4-7.4s3.3-7.4,7.4-7.4S430.5,235.6,430.5,239.7z"/>
<path class="st4" d="M432.6,271.6c0,4.1-3.3,7.4-7.4,7.4s-7.4-3.3-7.4-7.4c0-4.1,3.3-7.4,7.4-7.4S432.6,267.5,432.6,271.6z"/>
<path class="st4" d="M453.2,311.6c0,4.1-3.3,7.4-7.4,7.4s-7.4-3.3-7.4-7.4c0-4.1,3.3-7.4,7.4-7.4S453.2,307.5,453.2,311.6z"/>
<path class="st5" d="M450.1,285.3c0,4.1-3.3,7.4-7.4,7.4c-4.1,0-7.4-3.3-7.4-7.4s3.3-7.4,7.4-7.4
	C446.8,277.9,450.1,281.2,450.1,285.3z"/>
<path class="st2" d="M493.3,261.7c0,4.1-3.3,7.4-7.4,7.4c-4.1,0-7.4-3.3-7.4-7.4s3.3-7.4,7.4-7.4C490,254.3,493.3,257.6,493.3,261.7
	z"/>
<path class="st1" d="M479.1,192.1c0,4.1-3.3,7.4-7.4,7.4s-7.4-3.3-7.4-7.4c0-4.1,3.3-7.4,7.4-7.4S479.1,188,479.1,192.1z"/>
<path class="st1" d="M488.9,234.8c0,4.1-3.3,7.4-7.4,7.4c-4.1,0-7.4-3.3-7.4-7.4c0-4.1,3.3-7.4,7.4-7.4
	C485.6,227.4,488.9,230.7,488.9,234.8z"/>
<path class="st1" d="M446.4,220c0,4.1-3.3,7.4-7.4,7.4c-4.1,0-7.4-3.3-7.4-7.4c0-4.1,3.3-7.4,7.4-7.4
	C443.1,212.6,446.4,215.9,446.4,220z"/>
<path class="st3" d="M421.3,171.7c0,4.1-3.3,7.4-7.4,7.4s-7.4-3.3-7.4-7.4s3.3-7.4,7.4-7.4S421.3,167.6,421.3,171.7z"/>
<circle class="st3" cx="320.7" cy="194.5" r="7.4"/>
<path class="st4" d="M291.9,170.3c0,4.1-3.3,7.4-7.4,7.4s-7.4-3.3-7.4-7.4c0-4.1,3.3-7.4,7.4-7.4S291.9,166.2,291.9,170.3z"/>
<path class="st4" d="M350.1,160.9c0,4.1-3.3,7.4-7.4,7.4s-7.4-3.3-7.4-7.4s3.3-7.4,7.4-7.4S350.1,156.8,350.1,160.9z"/>
<path class="st4" d="M342.7,138.6c0,4.1-3.3,7.4-7.4,7.4c-4.1,0-7.4-3.3-7.4-7.4c0-4.1,3.3-7.4,7.4-7.4
	C339.4,131.2,342.7,134.5,342.7,138.6z"/>
<path class="st1" d="M358.9,119.4c0,4.1-3.3,7.4-7.4,7.4s-7.4-3.3-7.4-7.4c0-4.1,3.3-7.4,7.4-7.4S358.9,115.3,358.9,119.4z"/>
<path class="st4" d="M417.8,146c0,4.1-3.3,7.4-7.4,7.4c-4.1,0-7.4-3.3-7.4-7.4s3.3-7.4,7.4-7.4C414.5,138.6,417.8,141.9,417.8,146z"
	/>
<path class="st4" d="M437.8,157.8c0,4.1-3.3,7.4-7.4,7.4c-4.1,0-7.4-3.3-7.4-7.4c0-4.1,3.3-7.4,7.4-7.4
	C434.5,150.4,437.8,153.7,437.8,157.8z"/>
<path class="st4" d="M303.6,191c0,4.1-3.3,7.4-7.4,7.4s-7.4-3.3-7.4-7.4s3.3-7.4,7.4-7.4S303.6,186.9,303.6,191z"/>
<path class="st3" d="M217.4,319.9c0,4.1-3.3,7.4-7.4,7.4s-7.4-3.3-7.4-7.4c0-4.1,3.3-7.4,7.4-7.4S217.4,315.8,217.4,319.9z"/>
<ellipse transform="matrix(0.9262 -0.3769 0.3769 0.9262 -69.6474 107.5894)" class="st3" cx="240.1" cy="231.8" rx="10.2" ry="10.2"/>
<ellipse transform="matrix(0.2306 -0.973 0.973 0.2306 16.9299 385.2019)" class="st3" cx="252" cy="181.9" rx="10.2" ry="10.2"/>
<ellipse transform="matrix(0.9239 -0.3827 0.3827 0.9239 -68.3305 89.4985)" class="st3" cx="190.8" cy="216.5" rx="10.2" ry="10.2"/>
<circle class="st1" cx="268.3" cy="212.6" r="19.2"/>
<ellipse transform="matrix(0.1594 -0.9872 0.9872 0.1594 109.8993 513.3163)" class="st3" cx="356.4" cy="192.1" rx="19.2" ry="19.2"/>
<circle class="st2" cx="291.3" cy="138.6" r="19.2"/>
<circle class="st2" cx="371.7" cy="143.7" r="19.2"/>
<circle class="st6" cx="397.6" cy="256" r="19.2"/>
<circle class="st2" cx="451.8" cy="251.4" r="19.2"/>
<circle class="st2" cx="441" cy="187.1" r="19.2"/>
<circle class="st3" cx="223.6" cy="200.2" r="19.2"/>
<circle class="st3" cx="210" cy="247.6" r="19.2"/>
<path class="st7" d="M226.5,417.7"/>
<g>
	<g>
		<path class="st3" d="M329.3,463.1h-4c-0.8,0-1.6,0.1-2.2,0.3c-0.6,0.2-1.2,0.4-1.6,0.8c-0.5,0.4-0.9,0.8-1.4,1.4
			c-0.4,0.6-0.9,1.2-1.4,2c-0.1,0.2-0.3,0.3-0.4,0.4c-0.2,0.1-0.3,0.1-0.5,0.1c-0.3,0-0.4,0-0.6-0.1c-0.1-0.1-0.2-0.1-0.3-0.2
			c0.3-0.7,0.6-1.3,0.8-1.9c0.2-0.6,0.4-1.2,0.5-1.7c0.1-0.4,0.2-0.8,0.3-1.1s0.1-0.5,0.2-0.7c0-0.2,0.1-0.4,0.1-0.5
			c0-0.1,0.1-0.3,0.2-0.5c0.2-0.3,0.5-0.4,0.9-0.4c0.2,0,0.5,0,0.8,0.1s0.7,0.1,1.1,0.1c0.4,0,0.9,0.1,1.4,0.1c0.5,0,1,0,1.4,0h14.1
			c0.5,0,1,0,1.4,0c0.5,0,0.9,0,1.3-0.1c0.3,0,0.6-0.1,0.8-0.1c0.2,0,0.5-0.1,0.7-0.1c0.2,0,0.3,0,0.5,0.1c0.2,0.1,0.3,0.2,0.3,0.3
			c0.1,0.2,0.1,0.6,0.1,1s0.1,1,0.2,1.8c0.1,0.5,0.2,1.1,0.3,1.6c0.1,0.6,0.3,1.2,0.4,1.9c-0.3,0.2-0.6,0.3-1,0.3
			c-0.4,0-0.6-0.2-0.7-0.5c-0.4-1.6-1.1-2.8-1.9-3.5s-2.1-1-3.8-1h-4l-4.8,25.8c-0.1,0.4,0,0.7,0.1,1c0.2,0.3,0.4,0.5,0.7,0.6
			c0.3,0.2,0.7,0.3,1.1,0.4c0.4,0.1,0.8,0.2,1.2,0.2c0.2,0,0.3,0.1,0.5,0.2c0.2,0.1,0.2,0.3,0.2,0.6c0,0.3,0,0.5-0.1,0.8
			c-0.9-0.1-1.9-0.2-2.9-0.2s-2.1-0.1-3.3-0.1c-1,0-2.1,0-3.2,0.1s-2,0.1-2.9,0.2c0-0.2-0.1-0.3-0.1-0.4c0-0.1,0-0.3,0-0.4
			c0-0.2,0-0.3,0.1-0.5c0.1-0.2,0.2-0.3,0.4-0.3c1.1-0.2,2-0.4,2.7-0.8c0.7-0.4,1.1-0.8,1.2-1.5L329.3,463.1z"/>
		<path class="st3" d="M350.6,462.7c0-0.2,0-0.3-0.1-0.5c0-0.2-0.2-0.2-0.4-0.2c-0.1,0-0.3,0-0.5,0.1c-0.2,0-0.5,0.1-0.7,0.1
			c-0.3,0-0.5,0.1-0.7,0.1c-0.2,0-0.4,0-0.5,0c-0.4,0-0.7-0.3-0.7-1c1.4-0.4,2.8-0.8,4-1.2c1.2-0.4,2.5-0.8,3.7-1.3
			c0.4,0.3,0.6,0.6,0.6,0.9c0,0.1,0,0.3,0,0.4c0,0.1-0.1,0.3-0.1,0.4l-4.1,20.6h0.1c0.9-1.4,1.7-2.7,2.6-3.9
			c0.9-1.2,1.7-2.3,2.6-3.1c0.9-0.9,1.8-1.6,2.7-2.1c0.9-0.5,1.9-0.7,2.8-0.7c0.9,0,1.7,0.2,2.2,0.7s0.8,1.2,0.8,2.2
			c0,0.4,0,0.8-0.1,1.3c-0.1,0.5-0.1,1-0.2,1.5l-2.4,11.5c0,0.1-0.1,0.3-0.1,0.5s0,0.3,0,0.4c0,0.4,0.2,0.6,0.6,0.6
			c0.2,0,0.4-0.1,0.7-0.2c0.3-0.1,0.5-0.2,0.7-0.4c0.2-0.1,0.5-0.3,0.6-0.4c0.2-0.1,0.4-0.2,0.5-0.2c0.3,0,0.5,0.3,0.7,1
			c-0.6,0.4-1.2,0.8-1.8,1.2c-0.6,0.4-1.2,0.7-1.8,1c-0.6,0.3-1.1,0.5-1.6,0.7c-0.5,0.2-0.9,0.3-1.2,0.3c-0.4,0-0.7-0.1-1-0.2
			c-0.3-0.1-0.5-0.5-0.5-1c0-0.1,0-0.3,0-0.5c0-0.2,0.1-0.4,0.1-0.5l2.7-12.8c0.2-0.9,0.3-1.6,0.3-2.2c0-0.9-0.4-1.4-1.3-1.4
			c-0.4,0-1,0.2-1.7,0.7c-0.7,0.5-1.4,1.1-2.1,1.9c-0.8,0.8-1.5,1.8-2.3,2.9c-0.8,1.1-1.5,2.2-2.2,3.4c-0.3,0.5-0.6,1.1-0.8,1.8
			c-0.3,0.7-0.5,1.3-0.7,2c-0.2,0.7-0.3,1.4-0.5,2.1c-0.1,0.7-0.2,1.3-0.2,1.8c0,0.4,0,0.9,0.1,1.3c-1.2,0.1-2.5,0.4-3.8,0.7
			c-0.3-0.2-0.4-0.4-0.4-0.6c0-0.1,0-0.3,0-0.5c0-0.2,0.1-0.3,0.1-0.5l4.6-24c0.2-0.9,0.3-1.8,0.4-2.8
			C350.6,463.9,350.6,463.2,350.6,462.7z"/>
		<path class="st3" d="M373.3,482.7c0,0.3-0.1,0.6-0.1,1c0,0.3,0,0.7,0,1c0,0.7,0.1,1.5,0.2,2.2c0.1,0.7,0.4,1.3,0.7,1.9
			c0.3,0.5,0.8,1,1.3,1.3c0.6,0.3,1.3,0.5,2.1,0.5c0.8,0,1.7-0.2,2.6-0.5c0.9-0.3,1.8-0.8,2.7-1.4c0.3-0.2,0.5-0.3,0.7-0.3
			c0.3,0,0.4,0.1,0.5,0.4c0.1,0.3,0.1,0.4,0.1,0.6c-0.5,0.4-1,0.9-1.6,1.3c-0.6,0.4-1.3,0.8-2,1.2c-0.7,0.4-1.5,0.6-2.3,0.9
			c-0.8,0.2-1.6,0.3-2.5,0.3c-1.3,0-2.4-0.2-3.3-0.7s-1.5-1.1-2-1.9s-0.8-1.6-1-2.6c-0.2-0.9-0.3-1.8-0.3-2.7c0-1.7,0.3-3.4,0.8-5
			c0.5-1.7,1.3-3.2,2.2-4.5s2.1-2.4,3.5-3.2s2.9-1.2,4.6-1.2c0.7,0,1.3,0.1,2,0.3c0.6,0.2,1.2,0.4,1.7,0.8c0.5,0.4,0.9,0.8,1.2,1.4
			c0.3,0.6,0.5,1.3,0.5,2.1c0,1.2-0.3,2.2-0.9,3c-0.6,0.8-1.5,1.6-2.6,2.1c-1.1,0.6-2.4,1-3.9,1.3
			C376.7,482.5,375.1,482.6,373.3,482.7z M373.5,481.3c3-0.3,5.2-0.9,6.5-1.9c1.3-1,1.9-2.2,1.9-3.7c0-0.9-0.2-1.6-0.6-2
			s-1-0.7-1.8-0.7c-0.8,0-1.5,0.2-2.1,0.7c-0.7,0.5-1.2,1.1-1.8,1.8c-0.5,0.8-1,1.7-1.3,2.7S373.6,480.2,373.5,481.3z"/>
	</g>
</g>
<g>
	<g>
		<path class="st3" d="M178.3,601.7c-1.6,0.1-3.2,0.2-4.8,0.4c-0.1-0.2-0.2-0.5-0.2-0.7c0-0.2-0.1-0.4-0.1-0.7
			c0-0.3,0.1-0.5,0.3-0.8c0.2-0.2,0.6-0.4,1.1-0.5c1.2-0.2,2.1-0.5,2.8-0.9c0.7-0.4,1.1-1.1,1.3-2.1l7.1-36.7c0.2-0.9,0-1.5-0.6-1.9
			c-0.6-0.4-1.5-0.7-2.7-0.9c-0.9-0.1-1.4-0.5-1.4-1.2c0-0.2,0-0.4,0.1-0.6c0-0.2,0.1-0.5,0.2-0.8c1.8,0.2,3.6,0.3,5.4,0.4
			c1.8,0.1,3.2,0.1,4.4,0.1c1.3,0,3,0,5-0.1c2-0.1,3.8-0.2,5.4-0.4c0.1,0.3,0.2,0.6,0.2,0.8c0,0.2,0.1,0.4,0.1,0.7
			c0,0.7-0.6,1.2-1.7,1.3c-1.9,0.2-3.4,0.6-4.3,1.1c-1,0.5-1.6,1.4-1.8,2.8l-6.8,35.9c-0.1,0.6-0.1,1,0.1,1.3
			c0.2,0.3,0.6,0.4,1.4,0.4h7.2c2,0,3.9-0.5,5.6-1.6c1.7-1.1,3.5-2.9,5.3-5.6c0.2-0.4,0.5-0.7,0.6-0.9s0.5-0.3,0.9-0.3
			c0.4,0,0.9,0.1,1.3,0.4c0.4,0.3,0.8,0.5,1,0.8c-0.2,0.5-0.5,1.1-0.8,1.7c-0.2,0.5-0.5,1.1-0.8,1.8c-0.3,0.6-0.6,1.4-0.9,2.2
			c-0.4,1-0.7,1.8-0.8,2.6c-0.2,0.7-0.3,1.3-0.5,1.7c-0.1,0.3-0.3,0.5-0.5,0.6c-0.2,0.1-0.4,0.1-0.6,0.1c-0.5,0-1,0-1.4-0.1
			c-0.4,0-0.9-0.1-1.3-0.1c-0.5,0-1-0.1-1.6-0.1c-0.6,0-1.3-0.1-2.2-0.1h-16.8C181.2,601.6,179.9,601.6,178.3,601.7z"/>
		<path class="st3" d="M231.1,569.7c1.9,0,3.5,0.3,4.8,0.9c1.3,0.6,2.5,1.5,3.4,2.6c0.9,1.1,1.6,2.4,2,3.9c0.4,1.5,0.6,3.1,0.6,4.8
			c0,3.5-0.6,6.5-1.7,9c-1.1,2.6-2.5,4.7-4.3,6.4c-1.8,1.7-3.8,3-6,3.8c-2.2,0.8-4.4,1.3-6.6,1.3c-1.8,0-3.4-0.3-4.7-0.9
			s-2.3-1.4-3.1-2.4c-0.8-1-1.4-2.3-1.7-3.7c-0.4-1.5-0.5-3.1-0.5-4.8c0-3.2,0.6-6.1,1.7-8.7c1.1-2.6,2.6-4.8,4.3-6.6
			c1.7-1.8,3.6-3.2,5.7-4.1C227.2,570.2,229.2,569.7,231.1,569.7z M225.5,599.3c1.2,0,2.3-0.4,3.3-1.3c1-0.8,1.9-2,2.6-3.5
			c0.7-1.5,1.3-3.3,1.7-5.3c0.4-2.1,0.6-4.3,0.6-6.7c0-2.9-0.3-5.3-0.8-7c-0.5-1.7-1.5-2.6-3-2.6c-1.3,0-2.5,0.5-3.6,1.5
			c-1,1-1.9,2.4-2.6,4c-0.7,1.6-1.2,3.5-1.6,5.5c-0.4,2-0.5,4-0.5,6c0,3,0.3,5.3,0.9,6.9C223.1,598.5,224.1,599.3,225.5,599.3z"/>
		<path class="st3" d="M266.3,576.6c-0.7,0-1.4,0.3-2.2,0.8c-0.8,0.6-1.6,1.3-2.4,2.2c-0.8,0.9-1.7,2.1-2.5,3.4
			c-0.8,1.3-1.6,2.7-2.3,4.2c-0.4,0.8-0.7,1.7-1.1,2.7c-0.3,1-0.6,2.1-0.9,3.2c-0.3,1.1-0.5,2.2-0.6,3.2c-0.1,1.1-0.2,2-0.2,2.8
			c0,0.8,0.1,1.5,0.2,2.1c-1.2,0.1-2.3,0.3-3.5,0.5c-1.2,0.2-2.4,0.5-3.8,0.9c-0.8-0.3-1.2-0.8-1.2-1.3c0-0.2,0-0.5,0.1-0.8
			c0-0.3,0.1-0.5,0.1-0.6l4.6-23.3c0.1-0.3,0.1-0.5,0.1-0.8c0-0.2-0.2-0.3-0.4-0.3c-0.1,0-0.4,0.1-0.6,0.2c-0.3,0.1-0.6,0.3-1,0.4
			c-0.4,0.1-0.7,0.3-1.1,0.4c-0.4,0.1-0.7,0.2-0.9,0.2c-0.4,0-0.8-0.2-1-0.6c-0.2-0.4-0.4-0.8-0.5-1.2c0.9-0.6,2-1.2,3.2-1.8
			c1.2-0.6,2.5-1.2,3.7-1.7c1.2-0.5,2.3-0.9,3.3-1.3c1-0.3,1.8-0.5,2.2-0.5c0.4,0,0.7,0.1,1.1,0.3c0.3,0.2,0.5,0.5,0.5,1
			c0,0.1,0,0.3,0,0.6c0,0.2,0,0.5-0.1,0.7l-2.5,9.6l0.3,0.1c2.5-4.4,4.7-7.6,6.6-9.4c1.9-1.9,3.8-2.8,5.7-2.8c0.6,0,1.2,0.1,1.8,0.3
			c0.6,0.2,1,0.4,1.2,0.6c-0.8,1.9-1.4,4.5-1.9,7.8h-1.4c-0.3-0.5-0.6-1-1.1-1.4C267.6,576.8,267,576.6,266.3,576.6z"/>
		<path class="st3" d="M298.7,576.5c0,1.7-0.4,3.2-1.3,4.5c-0.9,1.3-2.1,2.3-3.7,3.2s-3.5,1.5-5.7,2c-2.2,0.5-4.7,0.8-7.3,0.9
			c0,0.5-0.1,0.9-0.1,1.4c0,0.4,0,0.9,0,1.4c0,1.1,0.1,2.1,0.3,3.1c0.2,1,0.5,1.9,0.9,2.7c0.4,0.8,1,1.4,1.8,1.9
			c0.7,0.5,1.7,0.7,2.8,0.7c0.9,0,1.9-0.2,3.1-0.5c1.2-0.4,2.5-1,3.9-1.9c0.4-0.3,0.8-0.5,1-0.7c0.3-0.2,0.6-0.3,0.9-0.3
			c0.5,0,0.8,0.3,1,0.8c0.2,0.5,0.3,0.9,0.3,1c-0.6,0.6-1.4,1.2-2.3,1.9c-0.9,0.7-2,1.3-3.2,1.9c-1.2,0.6-2.4,1.1-3.8,1.5
			s-2.8,0.6-4.2,0.6c-2.2,0-4-0.4-5.4-1.1c-1.4-0.7-2.5-1.7-3.2-2.8c-0.8-1.2-1.3-2.4-1.6-3.8c-0.3-1.4-0.4-2.8-0.4-4.1
			c0-2.6,0.4-5.1,1.3-7.6c0.8-2.5,2-4.7,3.6-6.7c1.6-2,3.4-3.6,5.6-4.8c2.2-1.2,4.6-1.8,7.2-1.8c2.4,0,4.5,0.5,6.2,1.5
			C297.9,572.3,298.7,574.1,298.7,576.5z M288.7,572.6c-0.9,0-1.8,0.3-2.6,1c-0.8,0.6-1.6,1.5-2.2,2.6c-0.7,1.1-1.2,2.4-1.7,3.8
			c-0.5,1.4-0.8,2.9-1.1,4.5c1.9-0.2,3.5-0.6,4.8-1.1s2.3-1.2,3.1-1.9s1.3-1.6,1.7-2.5c0.3-0.9,0.5-1.9,0.5-2.9c0-1.1-0.2-2-0.7-2.6
			C290,572.9,289.4,572.6,288.7,572.6z"/>
		<path class="st3" d="M330.7,588c-0.2,0.3-0.5,0.9-0.8,1.7c-0.4,0.8-0.7,1.7-1,2.7s-0.6,2.1-0.9,3.3c-0.2,1.2-0.4,2.3-0.4,3.5
			c0,0.8,0.1,1.5,0.2,2.1c-1.2,0.1-2.3,0.3-3.5,0.5c-1.2,0.2-2.4,0.5-3.8,0.9c-0.8-0.3-1.2-0.8-1.2-1.3c0-0.2,0-0.5,0.1-0.8
			c0-0.3,0.1-0.5,0.1-0.6l4-19.7c0.2-0.8,0.3-1.5,0.4-2.1c0.1-0.6,0.1-1.1,0.1-1.5c0-1-0.4-1.4-1.2-1.4c-0.5,0-1.2,0.4-1.9,1.1
			c-0.8,0.7-1.6,1.7-2.5,2.9c-0.9,1.2-1.8,2.6-2.8,4.1c-1,1.5-1.9,3.1-2.7,4.6c-0.9,1.5-1.6,3.4-2.2,5.5c-0.6,2.1-0.9,4-0.9,5.7
			c0,0.8,0.1,1.5,0.2,2.1c-1.2,0.1-2.3,0.3-3.5,0.5c-1.2,0.2-2.4,0.5-3.8,0.9c-0.8-0.3-1.2-0.8-1.2-1.3c0-0.2,0-0.5,0.1-0.8
			c0-0.3,0.1-0.5,0.1-0.6l4.6-23.3c0.1-0.3,0.1-0.5,0.1-0.8c0-0.2-0.2-0.3-0.4-0.3c-0.1,0-0.4,0.1-0.6,0.2c-0.3,0.1-0.6,0.3-1,0.4
			c-0.4,0.1-0.7,0.3-1.1,0.4c-0.4,0.1-0.7,0.2-0.9,0.2c-0.4,0-0.8-0.2-1-0.6c-0.2-0.4-0.4-0.8-0.5-1.2c0.9-0.6,2-1.2,3.2-1.8
			c1.2-0.6,2.5-1.2,3.7-1.7c1.2-0.5,2.3-0.9,3.3-1.3c1-0.3,1.8-0.5,2.2-0.5c0.4,0,0.7,0.1,1.1,0.3c0.3,0.2,0.5,0.5,0.5,1
			c0,0.1,0,0.3,0,0.6c0,0.2,0,0.5-0.1,0.7l-2.7,11.1l0.2,0.1c1.1-1.7,2.1-3.4,3.2-5.1c1.1-1.7,2.2-3.1,3.4-4.4s2.5-2.3,3.8-3.1
			c1.3-0.8,2.8-1.2,4.3-1.2c1.3,0,2.4,0.3,3.4,0.9c1,0.6,1.5,1.8,1.5,3.5c0,1.4-0.3,3.1-0.8,5l-0.9,3.3l0.2,0.1
			c1-1.6,2.1-3.2,3.1-4.8c1.1-1.6,2.2-2.9,3.4-4.1c1.2-1.2,2.4-2.1,3.6-2.8c1.3-0.7,2.7-1.1,4.2-1.1c1.3,0,2.4,0.3,3.4,0.9
			c1,0.6,1.4,1.7,1.4,3.3c0,0.6,0,1.3-0.1,2.1s-0.2,1.6-0.4,2.6L346,595c-0.1,0.6-0.2,1-0.2,1.3c0,0.4,0.2,0.6,0.6,0.6
			c0.3,0,0.6-0.1,1-0.3c0.4-0.2,0.8-0.4,1.2-0.6c0.4-0.2,0.7-0.4,1.1-0.6c0.3-0.2,0.6-0.3,0.8-0.3c0.4,0,0.7,0.2,0.9,0.6
			c0.2,0.4,0.3,0.8,0.4,1.2c-0.8,0.5-1.7,1.1-2.7,1.7c-1,0.6-2.1,1.2-3.2,1.7c-1.1,0.5-2.1,1-3.2,1.3c-1,0.4-1.9,0.5-2.7,0.5
			c-0.8,0-1.5-0.2-2.1-0.5c-0.6-0.3-0.8-0.9-0.8-1.7c0-0.3,0-0.6,0.1-0.8c0-0.3,0.1-0.5,0.1-0.7l3.9-18.4c0.2-0.8,0.3-1.5,0.4-2.1
			c0.1-0.6,0.1-1.1,0.1-1.5c0-1-0.4-1.4-1.2-1.4c-0.5,0-1.2,0.4-1.9,1.1c-0.8,0.7-1.6,1.7-2.5,2.9c-0.9,1.2-1.8,2.6-2.8,4.1
			C332.5,584.8,331.6,586.4,330.7,588z"/>
		<path class="st3" d="M384,596.6c-0.1,0.5,0,0.9,0.2,1.2c0.2,0.3,0.6,0.6,1,0.8c0.4,0.2,0.9,0.3,1.3,0.4c0.5,0.1,0.9,0.2,1.4,0.2
			c0.8,0.1,1.4,0.3,1.7,0.5c0.3,0.2,0.5,0.5,0.5,0.9c0,0.2,0,0.4-0.1,0.7s-0.1,0.6-0.1,0.8c-0.9,0-1.8-0.1-2.8-0.2
			c-1-0.1-2-0.1-3-0.2c-1,0-1.9-0.1-2.8-0.1c-0.9,0-1.6,0-2.2,0c-1,0-2.3,0-3.9,0.1c-1.6,0.1-3.2,0.2-4.8,0.4
			c-0.1-0.2-0.2-0.5-0.2-0.8c0-0.3,0-0.5,0-0.7c0-0.4,0.2-0.7,0.6-0.9c0.4-0.2,0.9-0.3,1.4-0.4c0.9-0.1,1.7-0.4,2.2-0.8
			c0.6-0.4,1-1.1,1.2-2l7.1-36.7c0.2-0.9,0.1-1.5-0.4-1.9c-0.5-0.4-1.3-0.7-2.6-0.8c-1.1-0.1-1.6-0.6-1.6-1.4c0-0.3,0.1-0.8,0.2-1.3
			c1.8,0.1,3.6,0.3,5.3,0.4c1.7,0.1,3.2,0.1,4.4,0.1h13.5c1.9,0,3.3-0.1,4.3-0.2c1-0.1,1.8-0.2,2.3-0.2s1,0.1,1.2,0.3
			c0.2,0.2,0.3,0.6,0.3,1.1c0,1.5,0.1,3,0.4,4.5c0.2,1.5,0.5,3,0.9,4.5c-0.2,0.2-0.6,0.3-1,0.5c-0.4,0.1-0.8,0.2-1.1,0.2
			c-0.5,0-0.9-0.1-1.2-0.3c-0.2-0.2-0.4-0.5-0.5-0.8c-0.7-2.3-1.6-3.9-2.7-4.9c-1.2-1-2.7-1.5-4.7-1.5h-8l-3.6,19h8.4
			c1.1,0,1.9-0.3,2.4-1c0.5-0.7,0.9-1.6,1.2-2.7c0.1-0.3,0.2-0.6,0.4-0.8c0.2-0.2,0.4-0.4,0.8-0.4c0.4,0,0.8,0.1,1.2,0.2
			c0.4,0.1,0.7,0.2,1,0.3c-0.3,1.1-0.5,2.1-0.8,3.1c-0.2,0.9-0.4,1.9-0.6,2.8c-0.2,1-0.3,2-0.4,3.1c-0.1,1.1-0.2,2.4-0.3,3.7
			c-0.5,0.2-1.1,0.4-1.9,0.4c-0.7,0-1.1-0.1-1.2-0.4c-0.1-0.3-0.2-0.6-0.1-0.9c0.1-1.2,0.1-2.2-0.3-3c-0.3-0.8-1-1.2-2.2-1.2h-8.1
			L384,596.6z"/>
		<path class="st3" d="M428.8,590.3l-0.3-0.1c-2.3,4.3-4.6,7.4-7.1,9.3c-2.4,1.9-4.6,2.8-6.5,2.8c-0.9,0-1.7-0.1-2.5-0.3
			s-1.5-0.6-2.1-1.2c-0.6-0.6-1.1-1.3-1.5-2.2s-0.6-2.1-0.6-3.5c0-4.1,0.7-7.7,2.1-10.9s3.1-5.8,5.1-8c2.1-2.2,4.3-3.8,6.7-5
			c2.4-1.1,4.6-1.7,6.7-1.7c1.5,0,3.1,0.1,4.7,0.3c1.6,0.2,3.4,0.5,5.5,0.9l-4.8,24.3c0,0.2-0.1,0.4-0.1,0.6c0,0.2,0,0.3,0,0.4
			c0,0.4,0.2,0.6,0.6,0.6c0.3,0,0.6-0.1,1-0.3c0.4-0.2,0.8-0.4,1.2-0.6c0.4-0.2,0.7-0.4,1.1-0.6c0.3-0.2,0.6-0.3,0.8-0.3
			c0.4,0,0.7,0.2,0.9,0.6c0.2,0.4,0.3,0.8,0.4,1.2c-0.8,0.5-1.7,1.1-2.7,1.7c-1,0.6-2.1,1.2-3.2,1.7c-1.1,0.5-2.1,1-3.2,1.3
			c-1,0.4-1.9,0.5-2.7,0.5c-0.8,0-1.4-0.2-1.9-0.5c-0.4-0.3-0.6-0.9-0.6-1.7c0-0.5,0.1-1.2,0.4-2L428.8,590.3z M430.7,573.2
			c-0.4-0.1-0.8-0.2-1.3-0.3c-0.5-0.1-0.9-0.1-1.3-0.1c-1.7,0-3.2,0.5-4.6,1.6c-1.4,1.1-2.6,2.5-3.6,4.3c-1,1.8-1.8,4-2.3,6.5
			c-0.6,2.5-0.8,5.2-0.8,8.2c0,1.3,0.1,2.3,0.3,3c0.2,0.7,0.7,1.1,1.5,1.1c0.8,0,1.6-0.4,2.5-1.2c0.9-0.8,1.8-1.9,2.7-3.2
			c0.9-1.3,1.8-2.8,2.6-4.5c0.8-1.7,1.6-3.4,2.2-5.2c0.6-1.8,1.2-3.6,1.5-5.3C430.6,576.2,430.8,574.6,430.7,573.2z"/>
		<path class="st3" d="M473.2,588c-0.2,0.3-0.5,0.9-0.8,1.7c-0.4,0.8-0.7,1.7-1,2.7s-0.6,2.1-0.9,3.3c-0.2,1.2-0.4,2.3-0.4,3.5
			c0,0.8,0.1,1.5,0.2,2.1c-1.2,0.1-2.3,0.3-3.5,0.5c-1.2,0.2-2.4,0.5-3.8,0.9c-0.8-0.3-1.2-0.8-1.2-1.3c0-0.2,0-0.5,0.1-0.8
			c0-0.3,0.1-0.5,0.1-0.6l4-19.7c0.2-0.8,0.3-1.5,0.4-2.1c0.1-0.6,0.1-1.1,0.1-1.5c0-1-0.4-1.4-1.2-1.4c-0.5,0-1.2,0.4-1.9,1.1
			c-0.8,0.7-1.6,1.7-2.5,2.9c-0.9,1.2-1.8,2.6-2.8,4.1c-1,1.5-1.9,3.1-2.7,4.6c-0.9,1.5-1.6,3.4-2.2,5.5c-0.6,2.1-0.9,4-0.9,5.7
			c0,0.8,0.1,1.5,0.2,2.1c-1.2,0.1-2.3,0.3-3.5,0.5c-1.2,0.2-2.4,0.5-3.8,0.9c-0.8-0.3-1.2-0.8-1.2-1.3c0-0.2,0-0.5,0.1-0.8
			c0-0.3,0.1-0.5,0.1-0.6l4.6-23.3c0.1-0.3,0.1-0.5,0.1-0.8c0-0.2-0.2-0.3-0.4-0.3c-0.1,0-0.4,0.1-0.6,0.2c-0.3,0.1-0.6,0.3-1,0.4
			c-0.4,0.1-0.7,0.3-1.1,0.4c-0.4,0.1-0.7,0.2-0.9,0.2c-0.4,0-0.8-0.2-1-0.6c-0.2-0.4-0.4-0.8-0.5-1.2c0.9-0.6,2-1.2,3.2-1.8
			c1.2-0.6,2.5-1.2,3.7-1.7c1.2-0.5,2.3-0.9,3.3-1.3c1-0.3,1.8-0.5,2.2-0.5c0.4,0,0.7,0.1,1.1,0.3c0.3,0.2,0.5,0.5,0.5,1
			c0,0.1,0,0.3,0,0.6c0,0.2,0,0.5-0.1,0.7l-2.7,11.1l0.2,0.1c1.1-1.7,2.1-3.4,3.2-5.1c1.1-1.7,2.2-3.1,3.4-4.4s2.5-2.3,3.8-3.1
			c1.3-0.8,2.8-1.2,4.3-1.2c1.3,0,2.4,0.3,3.4,0.9c1,0.6,1.5,1.8,1.5,3.5c0,1.4-0.3,3.1-0.8,5l-0.9,3.3l0.2,0.1
			c1-1.6,2.1-3.2,3.1-4.8c1.1-1.6,2.2-2.9,3.4-4.1c1.2-1.2,2.4-2.1,3.6-2.8c1.3-0.7,2.7-1.1,4.2-1.1c1.3,0,2.4,0.3,3.4,0.9
			c1,0.6,1.4,1.7,1.4,3.3c0,0.6,0,1.3-0.1,2.1s-0.2,1.6-0.4,2.6l-3.5,16.5c-0.1,0.6-0.2,1-0.2,1.3c0,0.4,0.2,0.6,0.6,0.6
			c0.3,0,0.6-0.1,1-0.3c0.4-0.2,0.8-0.4,1.2-0.6c0.4-0.2,0.7-0.4,1.1-0.6c0.3-0.2,0.6-0.3,0.8-0.3c0.4,0,0.7,0.2,0.9,0.6
			c0.2,0.4,0.3,0.8,0.4,1.2c-0.8,0.5-1.7,1.1-2.7,1.7c-1,0.6-2.1,1.2-3.2,1.7c-1.1,0.5-2.1,1-3.2,1.3c-1,0.4-1.9,0.5-2.7,0.5
			c-0.8,0-1.5-0.2-2.1-0.5c-0.6-0.3-0.8-0.9-0.8-1.7c0-0.3,0-0.6,0.1-0.8c0-0.3,0.1-0.5,0.1-0.7l3.9-18.4c0.2-0.8,0.3-1.5,0.4-2.1
			c0.1-0.6,0.1-1.1,0.1-1.5c0-1-0.4-1.4-1.2-1.4c-0.5,0-1.2,0.4-1.9,1.1c-0.8,0.7-1.6,1.7-2.5,2.9c-0.9,1.2-1.8,2.6-2.8,4.1
			C475,584.8,474.1,586.4,473.2,588z"/>
		<path class="st3" d="M507.5,595c-0.1,0.6-0.2,1-0.2,1.3c0,0.4,0.2,0.6,0.6,0.6c0.3,0,0.6-0.1,1-0.3c0.4-0.2,0.8-0.4,1.2-0.6
			c0.4-0.2,0.7-0.4,1.1-0.6c0.3-0.2,0.6-0.3,0.8-0.3c0.4,0,0.7,0.2,0.9,0.6c0.2,0.4,0.3,0.8,0.4,1.2c-0.8,0.5-1.7,1.1-2.7,1.7
			c-1,0.6-2.1,1.2-3.2,1.7c-1.1,0.5-2.1,1-3.2,1.3c-1,0.4-1.9,0.5-2.7,0.5c-0.8,0-1.5-0.2-2.1-0.5c-0.6-0.3-0.8-0.9-0.8-1.7
			c0-0.3,0-0.6,0.1-0.8c0-0.3,0.1-0.5,0.1-0.7l4.6-22c0.1-0.7,0-1.1-0.4-1.1c-0.1,0-0.4,0.1-0.6,0.2c-0.3,0.1-0.6,0.3-1,0.4
			c-0.4,0.1-0.7,0.3-1.1,0.4c-0.4,0.1-0.7,0.2-0.9,0.2c-0.4,0-0.8-0.2-1-0.6c-0.2-0.4-0.4-0.8-0.5-1.2c0.9-0.5,2-1,3.3-1.7
			c1.3-0.6,2.5-1.2,3.7-1.7c1.2-0.5,2.3-0.9,3.3-1.3c1-0.4,1.7-0.5,2.2-0.5c0.4,0,0.7,0.1,1.1,0.3c0.3,0.2,0.5,0.5,0.5,1
			c0,0.1,0,0.3,0,0.6c0,0.2-0.1,0.5-0.1,0.7L507.5,595z M509.2,563.8c-1.3,0-2.3-0.3-3.1-1c-0.8-0.6-1.2-1.5-1.2-2.6
			c0-1.5,0.6-2.8,1.7-3.8c1.2-1.1,2.5-1.6,4.1-1.6c1.4,0,2.4,0.4,3,1.3c0.6,0.8,0.9,1.7,0.9,2.6c0,1.5-0.5,2.8-1.6,3.7
			C512,563.3,510.7,563.8,509.2,563.8z"/>
		<path class="st3" d="M526.3,595c-0.1,0.6-0.2,1-0.2,1.3c0,0.4,0.2,0.6,0.6,0.6c0.3,0,0.6-0.1,1-0.3c0.4-0.2,0.8-0.4,1.2-0.6
			c0.4-0.2,0.7-0.4,1.1-0.6c0.3-0.2,0.6-0.3,0.8-0.3c0.4,0,0.7,0.2,0.9,0.6c0.2,0.4,0.3,0.8,0.4,1.2c-0.8,0.5-1.7,1.1-2.7,1.7
			c-1,0.6-2.1,1.2-3.2,1.7c-1.1,0.5-2.1,1-3.2,1.3c-1,0.4-1.9,0.5-2.7,0.5c-0.8,0-1.5-0.2-2.1-0.5c-0.6-0.3-0.8-0.9-0.8-1.7
			c0-0.3,0-0.6,0.1-0.8c0-0.3,0.1-0.5,0.1-0.7l7-34.6c0.2-1,0.4-2.1,0.5-3.3c0.1-1.2,0.2-2.2,0.2-3c0-0.5-0.2-0.8-0.6-0.8
			c-0.5,0-1.1,0.1-1.8,0.2c-0.7,0.1-1.3,0.2-1.8,0.2c-0.4,0-0.7-0.2-0.9-0.6c-0.2-0.4-0.3-0.9-0.3-1.4c2.3-0.7,4.5-1.3,6.6-2
			c2.1-0.6,4.3-1.4,6.4-2.2c0.9,0.4,1.4,1,1.4,1.9c0,0.2,0,0.4-0.1,0.7c0,0.3-0.1,0.5-0.1,0.7L526.3,595z"/>
		<path class="st3" d="M546.5,616.5c1.9,0,3.4-0.8,4.6-2.5s2.2-4,2.8-7.2l3.9-18.1l-0.2-0.1c-1.1,1.7-2.2,3.4-3.4,5.1
			c-1.2,1.7-2.4,3.1-3.7,4.4s-2.7,2.3-4.1,3.1s-2.9,1.2-4.4,1.2c-1.3,0-2.4-0.3-3.4-0.9c-1-0.6-1.4-1.7-1.4-3.3c0-0.6,0-1.3,0.1-2.1
			s0.2-1.6,0.4-2.6l3.4-16.1c0.1-0.6,0.2-1,0.2-1.3c0-0.4-0.2-0.6-0.6-0.6c-0.3,0-0.6,0.1-1,0.2c-0.4,0.1-0.8,0.3-1.2,0.4
			s-0.7,0.3-1.1,0.4c-0.3,0.1-0.6,0.2-0.8,0.2c-0.4,0-0.7-0.2-0.9-0.6c-0.2-0.4-0.3-0.8-0.4-1.2c0.7-0.4,1.6-0.9,2.7-1.5
			c1.2-0.6,2.3-1.2,3.6-1.8c1.2-0.6,2.4-1.1,3.5-1.4c1.1-0.4,2-0.6,2.6-0.6c0.7,0,1.2,0.2,1.6,0.5c0.4,0.3,0.6,0.9,0.6,1.7
			c0,0.3,0,0.6-0.1,0.8c0,0.3-0.1,0.5-0.1,0.7l-3.9,18.4c-0.2,0.8-0.3,1.5-0.4,2.1c-0.1,0.6-0.1,1.1-0.1,1.5c0,1,0.4,1.4,1.2,1.4
			c0.5,0,1.2-0.4,2-1.1s1.8-1.7,2.8-2.9c1-1.2,2-2.6,3.1-4.1c1-1.5,2-3.1,2.8-4.6c0.9-1.5,1.6-3.4,2.2-5.5c0.6-2.1,0.9-4,0.9-5.7
			c0-0.7-0.1-1.4-0.2-2.1c1.2-0.1,2.3-0.3,3.5-0.5c1.2-0.2,2.4-0.5,3.8-0.9c0.8,0.3,1.2,0.8,1.2,1.3c0,0.2,0,0.5-0.1,0.8
			c0,0.3-0.1,0.5-0.1,0.6l-6.4,32.2c-0.5,2.6-1.4,4.8-2.7,6.8c-1.2,1.9-2.7,3.5-4.3,4.8c-1.6,1.3-3.4,2.2-5.2,2.8
			c-1.8,0.6-3.6,0.9-5.4,0.9c-2,0-3.7-0.1-5.1-0.4c-1.4-0.3-2.7-0.7-3.9-1.2c0.9-2.2,1.5-4.4,1.8-6.8l1.8-0.3c0.8,1.6,1.8,2.9,3.2,4
			C543.5,616,545,616.5,546.5,616.5z"/>
	</g>
</g>
</svg>
